<svg xmlns="http://www.w3.org/2000/svg" xmlns:xlink="http://www.w3.org/1999/xlink" xmlns:inkscape="http://www.inkscape.org/namespaces/inkscape" version="1.1" width="115" height="74" viewBox="0 0 115 74">
<defs>
<path id="font_1_1" d="M.7630005 .60565188C.7719879 .6416168 .7739868 .6516113 .8470001 .6516113 .8730011 .6516113 .8809967 .6516113 .8809967 .6716156 .8809967 .6826172 .8699951 .6826172 .86698916 .6826172 .83898928 .6826172 .7669983 .6796112 .7389984 .6796112 .70999148 .6796112 .6389923 .6826172 .6100006 .6826172 .60198977 .6826172 .59098818 .6826172 .59098818 .6626129 .59098818 .6516113 .59999087 .6516113 .61898806 .6516113 .62098696 .6516113 .6399994 .6516113 .6569977 .6496124 .6749878 .6476135 .6839905 .6466217 .6839905 .6336212 .6839905 .6296234 .68299868 .6276245 .6799927 .6146393L.6199951 .37083436H.31498719L.37399293 .60565188C.3829956 .6416168 .38598634 .6516113 .45799256 .6516113 .48399354 .6516113 .49198915 .6516113 .49198915 .6716156 .49198915 .6826172 .48098756 .6826172 .47799684 .6826172 .44999696 .6826172 .37799073 .6796112 .34999085 .6796112 .32099916 .6796112 .25 .6826172 .22099304 .6826172 .21299744 .6826172 .20199585 .6826172 .20199585 .6626129 .20199585 .6516113 .21099854 .6516113 .22999573 .6516113 .23199463 .6516113 .25099183 .6516113 .2679901 .6496124 .28599549 .6476135 .29499818 .6466217 .29499818 .6336212 .29499818 .6296234 .2939911 .6266327 .29100038 .6146393L.15699768 .07797241C.14698792 .038986207 .14498902 .0309906 .06599426 .0309906 .04798889 .0309906 .038986207 .0309906 .038986207 .010986328 .038986207 0 .050994874 0 .052993776 0 .08099365 0 .1519928 .0029907227 .17999268 .0029907227 .20098877 .0029907227 .22299195 .0019989014 .24398804 .0019989014 .2659912 .0019989014 .28799439 0 .30899049 0 .31698609 0 .32899476 0 .32899476 .019989014 .32899476 .0309906 .31999208 .0309906 .30099488 .0309906 .2639923 .0309906 .23599243 .0309906 .23599243 .048980714 .23599243 .054977418 .23799134 .0599823 .23899842 .065979007L.30699159 .33984376H.6119995C.56999209 .17391968 .5469971 .07896423 .54299929 .0639801 .5329895 .03199768 .5139923 .0309906 .45199586 .0309906 .43699647 .0309906 .42799378 .0309906 .42799378 .010986328 .42799378 0 .43998719 0 .44198609 0 .46998597 0 .54100039 .0029907227 .56900027 .0029907227 .58999636 .0029907227 .6119995 .0019989014 .6329956 .0019989014 .6549988 .0019989014 .6769867 0 .69799807 0 .70599368 0 .71798709 0 .71798709 .019989014 .71798709 .0309906 .70899966 .0309906 .6899872 .0309906 .6529999 .0309906 .625 .0309906 .625 .048980714 .625 .054977418 .6269989 .0599823 .6279907 .065979007L.7630005 .60565188Z"/>
<path id="font_1_2" d="M.5089874 .40376283C.5079956 .40675355 .5039978 .41474916 .5039978 .41775514 .5039978 .41874696 .5219879 .43273927 .5329895 .44073487L.70799258 .5756531C.8019867 .64460757 .84098818 .64860537 .87098696 .6516113 .8789978 .65260317 .8889923 .6536102 .8889923 .6716156 .8889923 .6756134 .8860016 .6826172 .8779907 .6826172 .85598757 .6826172 .83099368 .6796112 .8069916 .6796112 .7709961 .6796112 .7319946 .6826172 .69599917 .6826172 .68899539 .6826172 .6769867 .6826172 .6769867 .6626129 .6769867 .65560916 .6819916 .65260317 .68899539 .6516113 .71099856 .6496124 .7200012 .64460757 .7200012 .63061526 .7200012 .6126251 .6899872 .5896454 .6839905 .5846405L.2939911 .28483583 .37399293 .6056366C.3829956 .6416168 .3849945 .6516113 .45799256 .6516113 .48298646 .6516113 .49198915 .6516113 .49198915 .6716156 .49198915 .680603 .48399354 .6826172 .47799684 .6826172 .44999696 .6826172 .37799073 .6796112 .34999085 .6796112 .32099916 .6796112 .25 .6826172 .22099304 .6826172 .21398926 .6826172 .20098877 .6826172 .20098877 .66360476 .20098877 .6516113 .20999146 .6516113 .22999573 .6516113 .24299622 .6516113 .26098634 .65060427 .272995 .6496124 .2889862 .6476135 .29499818 .64460757 .29499818 .6336212 .29499818 .6296234 .2939911 .62661746 .29100038 .614624L.15699768 .07795715C.14698792 .038986207 .14498902 .0309906 .06599426 .0309906 .04899597 .0309906 .037994386 .0309906 .037994386 .011993408 .037994386 0 .049987794 0 .052993776 0 .08099365 0 .1519928 .0029907227 .17999268 .0029907227 .20098877 .0029907227 .22299195 .0019989014 .24398804 .0019989014 .2659912 .0019989014 .28799439 0 .30899049 0 .31599427 0 .32899476 0 .32899476 .019989014 .32899476 .0309906 .31999208 .0309906 .30099488 .0309906 .2639923 .0309906 .23599243 .0309906 .23599243 .048980714 .23599243 .05596924 .24198914 .07795715 .24499512 .09295654 .25898744 .14492798 .27198792 .19789124 .2849884 .24986267L.43399049 .3657837 .5499878 .096954349C.56199648 .06996155 .56199648 .06796265 .56199648 .061965944 .56199648 .03199768 .5189972 .0309906 .5099945 .0309906 .49899293 .0309906 .48799134 .0309906 .48799134 .010986328 .48799134 0 .5 0 .5019989 0 .5419922 0 .58399966 .0029907227 .6239929 .0029907227 .6459961 .0029907227 .69999697 0 .7220001 0 .72698977 0 .73999026 0 .73999026 .019989014 .73999026 .0309906 .72898867 .0309906 .7200012 .0309906 .67900088 .03199768 .66600039 .040985109 .651001 .07595825L.5089874 .40376283Z"/>
<path id="font_2_1" d="M.61099246 .37960816C.61099246 .5316467 .45799256 .59765627 .33299256 .59765627 .20298767 .59765627 .054992677 .5276489 .054992677 .38061524V.013534546C.054992677-.004470825 .054992677-.022460938 .07499695-.022460938 .09498596-.022460938 .09498596-.004470825 .09498596 .013534546V.37561036C.09498596 .52565 .2579956 .5576477 .33299256 .5576477 .37799073 .5576477 .44099427 .548645 .49398805 .5146332 .57099917 .4656372 .57099917 .40161134 .57099917 .37460328V.013534546C.57099917-.004470825 .57099917-.022460938 .59098818-.022460938 .61099246-.022460938 .61099246-.004470825 .61099246 .013534546V.37960816Z"/>
<path id="font_3_77" d="M.58999636 0V.035995485C.5249939 .035995485 .5149994 .035995485 .5149994 .07904053V.3032837C.5149994 .3903656 .47200013 .44140626 .36499024 .44140626 .2829895 .44140626 .22999573 .39637757 .20199585 .34432984H.20098877V.44140626L.053985597 .43052674V.39453126C.12098694 .39453126 .1289978 .3875122 .1289978 .33843995V.079055789C.1289978 .035995485 .11898804 .035995485 .053985597 .035995485V0C.053985597 0 .12599182 .0039978029 .16799927 .0039978029 .20498657 .0039978029 .27398683 .0009918213 .2829895 0V.035995485C.21798706 .035995485 .20799256 .035995485 .20799256 .079055789V.25932313C.20799256 .36434938 .29100038 .4133911 .35699464 .4133911 .4269867 .4133911 .43598939 .3583374 .43598939 .3072815V.07904053C.43598939 .035995485 .42599488 .035995485 .36099244 .035995485V0C.36099244 0 .43299867 .0039978029 .47499085 .0039978029 .5119934 .0039978029 .58099368 .0009918213 .58999636 0Z"/>
<path id="font_3_81" d="M.5289917 .21325684C.5289917 .3382721 .42199708 .44628907 .28399659 .44628907 .1459961 .44628907 .038986207 .3382721 .038986207 .21325684 .038986207 .0892334 .14898682-.009765625 .28399659-.009765625 .4189911-.009765625 .5289917 .0892334 .5289917 .21325684M.43798829 .22225952C.43798829 .17424011 .43499757 .12124634 .4059906 .08023071 .3789978 .042236329 .33299256 .022232056 .28399659 .022232056 .24699402 .022232056 .19299317 .034225465 .1599884 .083236698 .1329956 .12423706 .12998963 .17625427 .12998963 .22225952 .12998963 .2652588 .1309967 .32426454 .1659851 .36727906 .19099427 .39627076 .23298645 .41827394 .28399659 .41827394 .34298707 .41827394 .3849945 .39027406 .40699769 .3592682 .43499757 .32026673 .43798829 .27026368 .43798829 .22225952Z"/>
<path id="font_3_96" d="M.40699769 .37739564C.40699769 .4113922 .375 .44140626 .32798768 .44140626 .27799989 .44140626 .22299195 .4104004 .19299317 .33439637H.19198609V.44140626L.04899597 .43052674V.39453126C.115997318 .39453126 .12399292 .3875122 .12399292 .33843995V.079055789C.12399292 .035995485 .11399841 .035995485 .04899597 .035995485V0C.053985597 0 .12199402 .0039978029 .16299439 .0039978029L.29299928 0V.035995485H.272995C.19898987 .036071779 .19898987 .047073366 .19898987 .081085208V.22807312C.19898987 .31207276 .23799134 .41308595 .33299256 .41308595 .32398988 .40608216 .31599427 .39308167 .31599427 .3770752 .31599427 .3440857 .34199525 .3310852 .36099244 .3310852 .3849945 .3310852 .40699769 .34707643 .40699769 .3770752V.37739564Z"/>
<path id="font_3_75" d="M.8969879 0V.035995485C.83200076 .035995485 .82199099 .035995485 .82199099 .07904053V.3032837C.82199099 .3903656 .7789917 .44140626 .6719971 .44140626 .59298709 .44140626 .5389862 .39837647 .5119934 .34832765 .49198915 .41940309 .43798829 .44140626 .36499024 .44140626 .2829895 .44140626 .22999573 .39637757 .20199585 .34432984H.20098877V.44140626L.053985597 .43052674V.39453126C.12098694 .39453126 .1289978 .3875122 .1289978 .33843995V.079055789C.1289978 .035995485 .11898804 .035995485 .053985597 .035995485V0C.053985597 0 .12599182 .0039978029 .16799927 .0039978029 .20498657 .0039978029 .27398683 .0009918213 .2829895 0V.035995485C.21798706 .035995485 .20799256 .035995485 .20799256 .079055789V.25932313C.20799256 .36434938 .29100038 .4133911 .35699464 .4133911 .4269867 .4133911 .43598939 .3583374 .43598939 .3072815V.07904053C.43598939 .035995485 .42599488 .035995485 .36099244 .035995485V0C.36099244 0 .43299867 .0039978029 .47499085 .0039978029 .5119934 .0039978029 .58099368 .0009918213 .58999636 0V.035995485C.5249939 .035995485 .5149994 .035995485 .5149994 .07904053V.25923158C.5149994 .36434938 .59799197 .4133911 .6639862 .4133911 .73399356 .4133911 .7429962 .3583374 .7429962 .3072815V.07904053C.7429962 .035995485 .73298647 .035995485 .66799929 .035995485V0C.66799929 0 .73999026 .0039978029 .7819977 .0039978029 .81900027 .0039978029 .8880005 .0009918213 .8969879 0Z"/>
<path id="font_3_88" d="M.21899414 .056991579C.21899414 .09199524 .19099427 .114990238 .1619873 .114990238 .1269989 .114990238 .10398865 .08699036 .10398865 .057998659 .10398865 .022994996 .13198853 0 .16099549 0 .19599915 0 .21899414 .027999878 .21899414 .056991579Z"/>
</defs>
<use data-text="H" xlink:href="#font_1_1" transform="matrix(9.963098,0,0,-9.963098,48.315706,8.057804)"/>
<use data-text="K" xlink:href="#font_1_2" transform="matrix(9.963098,0,0,-9.963098,57.402055,8.057804)"/>
<use data-text="H" xlink:href="#font_1_1" transform="matrix(9.963098,0,0,-9.963098,1.1903534,40.100404)"/>
<use data-text="K" xlink:href="#font_1_2" transform="matrix(9.963098,0,0,-9.963098,104.6165,40.100404)"/>
<use data-text="H" xlink:href="#font_1_1" transform="matrix(9.963098,0,0,-9.963098,42.781435,72.142009)"/>
<use data-text="&#x2229;" xlink:href="#font_2_1" transform="matrix(9.963098,0,0,-9.963098,54.08699,72.142009)"/>
<use data-text="K" xlink:href="#font_1_2" transform="matrix(9.963098,0,0,-9.963098,62.943437,72.142009)"/>
<path transform="matrix(1.00005,0,0,-1.00005,57.49118,45.66268)" stroke-width=".39848" stroke-linecap="butt" stroke-miterlimit="10" stroke-linejoin="miter" fill="none" stroke="#000000" d="M10.19702 33.75407 42.6311 13.67213"/>
<use data-text="n" xlink:href="#font_3_77" transform="matrix(6.9741489,0,0,-6.9741489,86.25262,19.532378)"/>
<use data-text="o" xlink:href="#font_3_81" transform="matrix(6.9741489,0,0,-6.9741489,90.6533,19.532378)"/>
<use data-text="r" xlink:href="#font_3_96" transform="matrix(6.9741489,0,0,-6.9741489,94.62159,19.532378)"/>
<use data-text="m" xlink:href="#font_3_75" transform="matrix(6.9741489,0,0,-6.9741489,97.73206,19.532378)"/>
<use data-text="." xlink:href="#font_3_88" transform="matrix(6.9741489,0,0,-6.9741489,104.2808,19.532378)"/>
<path transform="matrix(1.00005,0,0,-1.00005,57.49118,45.66268)" stroke-width=".39848" stroke-linecap="butt" stroke-miterlimit="10" stroke-linejoin="miter" fill="none" stroke="#000000" d="M-10.27173 33.75407-42.71413 13.65085"/>
<path transform="matrix(1.00005,0,0,-1.00005,57.49118,45.66268)" stroke-width=".39848" stroke-linecap="butt" stroke-miterlimit="10" stroke-linejoin="miter" fill="none" stroke="#000000" d="M-42.71413 2.45454-13.21617-15.82106"/>
<use data-text="n" xlink:href="#font_3_77" transform="matrix(6.9741489,0,0,-6.9741489,6.896652,57.803289)"/>
<use data-text="o" xlink:href="#font_3_81" transform="matrix(6.9741489,0,0,-6.9741489,11.297333,57.803289)"/>
<use data-text="r" xlink:href="#font_3_96" transform="matrix(6.9741489,0,0,-6.9741489,15.265625,57.803289)"/>
<use data-text="m" xlink:href="#font_3_75" transform="matrix(6.9741489,0,0,-6.9741489,18.376099,57.803289)"/>
<use data-text="." xlink:href="#font_3_88" transform="matrix(6.9741489,0,0,-6.9741489,24.924836,57.803289)"/>
<path transform="matrix(1.00005,0,0,-1.00005,57.49118,45.66268)" stroke-width=".39848" stroke-linecap="butt" stroke-miterlimit="10" stroke-linejoin="miter" fill="none" stroke="#000000" d="M42.6311 2.43549 13.14372-15.82106"/>
</svg>
