<svg xmlns="http://www.w3.org/2000/svg" xmlns:xlink="http://www.w3.org/1999/xlink" xmlns:inkscape="http://www.inkscape.org/namespaces/inkscape" version="1.1" width="99" height="49" viewBox="0 0 99 49">
<defs>
<path id="font_1_3" d="M.375 .6136017C.3809967 .63760378 .38398744 .6476135 .40299989 .65060427 .4119873 .6516113 .44400025 .6516113 .46398927 .6516113 .5349884 .6516113 .6459961 .6516113 .6459961 .5525818 .6459961 .51856997 .6299896 .44955445 .59098818 .41055299 .5649872 .38453675 .5119934 .35253907 .42199708 .35253907H.30999757L.375 .6136017M.5189972 .33953858C.6199951 .3615265 .7389984 .43154908 .7389984 .5325775 .7389984 .61860659 .6489868 .6826172 .5179901 .6826172H.23298645C.21299744 .6826172 .20399475 .6826172 .20399475 .6626129 .20399475 .6516113 .21299744 .6516113 .23199463 .6516113 .23399353 .6516113 .25299073 .6516113 .269989 .6496124 .28799439 .6476135 .29699708 .64660647 .29699708 .63360598 .29699708 .62960818 .29599 .6266022 .29299928 .6145935L.15899658 .07752991C.14898682 .038528444 .14698792 .030532837 .067993167 .030532837 .049987794 .030532837 .040985109 .030532837 .040985109 .010528564 .040985109-.00047302247 .052993776-.00047302247 .054992677-.00047302247 .08299255-.00047302247 .15299988 .002532959 .18099976 .002532959 .20899964 .002532959 .27999879-.00047302247 .30799867-.00047302247 .31599427-.00047302247 .32798768-.00047302247 .32798768 .01953125 .32798768 .030532837 .31900025 .030532837 .2999878 .030532837 .2630005 .030532837 .23498535 .030532837 .23498535 .048538209 .23498535 .054534913 .23699951 .059524537 .23799134 .0655365L.3039856 .3305359H.4229889C.5139923 .3305359 .5319977 .27453614 .5319977 .23953247 .5319977 .22453308 .5239868 .19352722 .5179901 .17053223 .5109863 .14253235 .5019989 .105529788 .5019989 .08552551 .5019989-.022460938 .621994-.022460938 .6349945-.022460938 .7200012-.022460938 .7549896 .07853699 .7549896 .0925293 .7549896 .104537967 .74398806 .104537967 .7429962 .104537967 .73399356 .104537967 .7319946 .09753418 .7299957 .090530399 .7049866 .016525269 .6619873-.00047302247 .6389923-.00047302247 .60598757-.00047302247 .598999 .021530152 .598999 .060531618 .598999 .091537479 .6049957 .14253235 .60899356 .17453003 .61099246 .1885376 .61299136 .20753479 .61299136 .2215271 .61299136 .2985382 .54599 .3295288 .5189972 .33953858Z"/>
<path id="font_1_4" d="M.644989 .69506838C.644989 .69807437 .6429901 .7050781 .6339874 .7050781 .6289978 .7050781 .6279907 .70407107 .6159973 .6900635L.56799319 .6330414C.5419922 .68006899 .48999024 .7050781 .4249878 .7050781 .2979889 .7050781 .17799378 .58999636 .17799378 .4689026 .17799378 .38783265 .23098755 .34179688 .28199769 .32678224L.3889923 .2987671C.42599488 .2897644 .48098756 .27474977 .48098756 .19267273 .48098756 .1026001 .39898683 .008529663 .30099488 .008529663 .23699951 .008529663 .12599182 .030548096 .12599182 .15464783 .12599182 .17866516 .1309967 .2026825 .13198853 .20869446 .1329956 .21269226 .13398743 .21369934 .13398743 .21569824 .13398743 .22570801 .1269989 .22669983 .12199402 .22669983 .116989139 .22669983 .114990238 .22570801 .11199951 .22270203 .10798645 .21870423 .051986696-.009475708 .051986696-.012466431 .051986696-.018463135 .056991579-.022460938 .06298828-.022460938 .067993167-.022460938 .068984989-.021469117 .08099365-.007461548L.12998963 .049560548C.17298889-.008468628 .24099732-.022460938 .29899598-.022460938 .43499757-.022460938 .5529938 .11061096 .5529938 .2347107 .5529938 .30377198 .5189972 .33779908 .5039978 .35180665 .48098756 .37483216 .46598817 .37882997 .3769989 .40185548 .35499574 .40785218 .31900025 .41786195 .30999757 .41986085 .2829895 .42886354 .24899292 .457901 .24899292 .51094058 .24899292 .59199526 .32899476 .677063 .42399598 .677063 .5069885 .677063 .56799319 .6340332 .56799319 .52194216 .56799319 .48991395 .56399539 .47190858 .56399539 .4658966 .56399539 .4649048 .56399539 .45588685 .57598879 .45588685 .58599856 .45588685 .58699038 .45889283 .59098818 .47590638L.644989 .69506838Z"/>
<path id="font_1_1" d="M.43899537 .71199038C.44400025 .72499087 .44400025 .72898867 .44400025 .7299957 .44400025 .7409973 .43499757 .75 .42399598 .75 .4169922 .75 .4099884 .746994 .40699769 .7409973L.05999756-.21200562C.054992677-.2250061 .054992677-.2290039 .054992677-.23001099 .054992677-.24101258 .06399536-.25 .07499695-.25 .08799744-.25 .09098816-.24301148 .09700012-.22601319L.43899537 .71199038Z"/>
<path id="font_1_2" d="M.37399293 .6056366C.3829956 .6416168 .38598634 .6516113 .46499635 .6516113 .4889984 .6516113 .49699403 .6516113 .49699403 .6706085 .49699403 .6826172 .48599244 .6826172 .48199464 .6826172 .45298768 .6826172 .3789978 .6796112 .34999085 .6796112 .31999208 .6796112 .24699402 .6826172 .21699524 .6826172 .20999146 .6826172 .19699097 .6826172 .19699097 .6626129 .19699097 .6516113 .20599365 .6516113 .22499085 .6516113 .2669983 .6516113 .2939911 .6516113 .2939911 .63261416 .2939911 .6276245 .2939911 .6256256 .2919922 .6166229L.15699768 .07795715C.147995 .040985109 .14498902 .0309906 .06599426 .0309906 .042999269 .0309906 .033996583 .0309906 .033996583 .010986328 .033996583 0 .04598999 0 .04899597 0 .07798767 0 .15098572 .0029907227 .17999268 .0029907227 .20999146 .0029907227 .28399659 0 .31399537 0 .32199098 0 .33399964 0 .33399964 .018997193 .33399964 .0309906 .32598878 .0309906 .3039856 .0309906 .28599549 .0309906 .2809906 .0309906 .26098634 .032989503 .23999024 .034988405 .23599243 .038986207 .23599243 .049987794 .23599243 .05796814 .23799134 .065963748 .23999024 .07296753L.37399293 .6056366Z"/>
<path id="font_2_2" d="M.49198915 .68133547C.49198915 .69433596 .47999574 .69433596 .47499085 .69433596 .45999146 .69433596 .45899964 .68933108 .45498658 .67233279L.397995 .44335938C.22099304 .4353485 .069992069 .30833436 .069992069 .17430115 .069992069 .061279298 .17298889-.006729126 .28399659-.010726929 .27598573-.041793825 .2689972-.0738678 .26098634-.10493469 .24899292-.15203858 .23999024-.18910218 .23999024-.19210816 .23999024-.20410156 .25299073-.20410156 .2559967-.20410156 .2709961-.20410156 .27198792-.20111084 .2769928-.18009949L.31900025-.01171875C.48999024-.0047302248 .6469879 .121292117 .6469879 .25732423 .6469879 .3623352 .5549927 .4373474 .43299867 .4423523L.49198915 .68133547M.29100038 .01727295C.21398926 .021270752 .14299011 .0632782 .14299011 .15730286 .14299011 .25732423 .21899414 .39834596 .3899994 .41435243L.29100038 .01727295M.4249878 .41435243C.5019989 .41134645 .57398989 .369339 .57398989 .2743225 .57398989 .16529846 .48799134 .031280519 .32598878 .01727295L.4249878 .41435243Z"/>
<path id="font_2_1" d="M.31098939 .36265565H.42999269C.4149933 .30274964 .3929901 .2118988 .3929901 .13302613 .3929901 .09309387 .397995 .06613159 .4039917 .044174196 .41999818-.0057678224 .43299867-.009765625 .44898988-.009765625 .47200013-.009765625 .49598695 .011230469 .49598695 .035186769 .49598695 .043182374 .49398805 .047164918 .48799134 .057159425 .46899415 .09408569 .45098878 .15100098 .45098878 .23286438 .45098878 .25183106 .45098878 .29177857 .46499635 .36265565H.58999636C.60798647 .36265565 .6159973 .36265565 .6269989 .37065126 .6409912 .380661 .6439972 .39665223 .6439972 .4016571 .6439972 .43066407 .6179962 .43066407 .6009979 .43066407H.22399903C.18299866 .43066407 .15499878 .42166139 .10998535 .37965394 .083999637 .35665895 .04499817 .30274964 .04499817 .2937622 .04499817 .28178407 .057998659 .28178407 .06199646 .28178407 .07299805 .28178407 .07398987 .28378297 .07998657 .2927704 .1309967 .36265565 .19299317 .36265565 .21499634 .36265565H.27598573C.24499512 .25283814 .19099427 .13502503 .16099549 .07511902 .15499878 .062149049 .14498902 .04118347 .14199829 .03718567 .14099121 .033187868 .13899231 .029190064 .13899231 .022201539 .13899231 .006225586 .15098572-.009765625 .17399597-.009765625 .21398926-.009765625 .22499085 .035186769 .24899292 .12504578L.31098939 .36265565Z"/>
<path id="font_3_1" d="M.56900027 .6553345C.56900027 .68933108 .5629883 .69433596 .5289917 .69433596H.116989139C.099990848 .69433596 .07699585 .69433596 .07699585 .6693268 .07699585 .6453247 .100997928 .6453247 .116989139 .6453247H.519989V.37223817H.1349945C.117996219 .37223817 .09298706 .37223817 .09298706 .347229 .09298706 .3232422 .114990238 .3232422 .12998963 .3232422H.519989V.04899597H.116989139C.099990848 .04899597 .07699585 .04899597 .07699585 .023986817 .07699585 0 .100997928 0 .116989139 0H.5289917C.5629883 0 .56900027 .004989624 .56900027 .038986207V.6553345Z"/>
<path id="font_4_1" d="M.21899414 .65885928C.21899414 .69485476 .18798828 .7138672 .1619873 .7138672 .1329956 .7138672 .10398865 .69285586 .10398865 .65885928L.14299011 .21783448C.14498902 .1958313 .147995 .1938324 .1619873 .1938324 .1749878 .1938324 .17799378 .1958313 .17999268 .21684265L.21899414 .65885928M.21899414 .057998659C.21899414 .08898926 .19299317 .114990238 .1619873 .114990238 .1269989 .114990238 .10398865 .08699036 .10398865 .057998659 .10398865 .022994996 .13198853 0 .16099549 0 .19400025 0 .21899414 .024993897 .21899414 .057998659Z"/>
</defs>
<use data-text="R" xlink:href="#font_1_3" transform="matrix(9.962899,0,0,-9.962799,1.1906128,12.782972)"/>
<use data-text="S" xlink:href="#font_1_4" transform="matrix(9.962899,0,0,-9.962799,91.614337,12.782972)"/>
<use data-text="R" xlink:href="#font_1_3" transform="matrix(9.962899,0,0,-9.962799,41.33081,45.48863)"/>
<use data-text="/" xlink:href="#font_1_1" transform="matrix(9.962899,0,0,-9.962799,48.962388,45.48863)"/>
<use data-text="I" xlink:href="#font_1_2" transform="matrix(9.962899,0,0,-9.962799,53.943834,45.48863)"/>
<path transform="matrix(1.00003,0,0,-1.00002,49.74507,26.97726)" stroke-width=".39848" stroke-linecap="butt" stroke-miterlimit="10" stroke-linejoin="miter" fill="none" stroke="#000000" d="M-36.41827 16.68451H36.97804"/>
<path transform="matrix(1.00003,0,0,-1.00002,86.92347,10.292418)" stroke-width=".39848" stroke-linecap="round" stroke-linejoin="round" fill="none" stroke="#000000" d="M-2.07213 2.39091C-1.69356 .95633-.84995 .27893 0 0-.84995-.27893-1.69356-.95633-2.07213-2.39091"/>
<use data-text="&#x03d5;" xlink:href="#font_2_2" transform="matrix(6.9740097,0,0,-6.97394,47.82901,6.5898535)"/>
<path transform="matrix(1.00003,0,0,-1.00002,49.74507,26.97726)" stroke-width=".39848" stroke-linecap="butt" stroke-miterlimit="10" stroke-linejoin="miter" fill="none" stroke="#000000" d="M-36.41827 10.67142-12.04858-6.95628"/>
<path transform="matrix(.81025436,.5860717,.5860776,-.8102462,37.857557,34.05043)" stroke-width=".39848" stroke-linecap="round" stroke-linejoin="round" fill="none" stroke="#000000" d="M-2.07213 2.39091C-1.69356 .95633-.84995 .27893 0 0-.84995-.27893-1.69356-.95633-2.07213-2.39091"/>
<use data-text="&#x03c0;" xlink:href="#font_2_1" transform="matrix(6.9740097,0,0,-6.97394,18.41713,30.585333)"/>
<path transform="matrix(1.00003,0,0,-1.00002,49.74507,26.97726)" stroke-width=".39848" stroke-linecap="butt" stroke-dasharray=".39848,1.99255" stroke-miterlimit="10" stroke-linejoin="miter" fill="none" stroke="#000000" d="M12.55545-7.1898 37.05487 10.72359"/>
<path transform="matrix(.8072243,-.5902218,-.5902277,-.80721619,86.96187,16.135872)" stroke-width=".39848" stroke-linecap="round" stroke-linejoin="round" fill="none" stroke="#000000" d="M-2.07213 2.39091C-1.69356 .95633-.84995 .27893 0 0-.84995-.27893-1.69356-.95633-2.07213-2.39091"/>
<use data-text="&#x2203;" xlink:href="#font_3_1" transform="matrix(6.9740097,0,0,-6.97394,77.05789,33.975404)"/>
<use data-text="!" xlink:href="#font_4_1" transform="matrix(6.9740097,0,0,-6.97394,82.93007,33.975404)"/>
<path transform="matrix(1.00003,0,0,-1.00002,-58.68918,20.99814)" stroke-width=".3387" stroke-linecap="butt" stroke-miterlimit="10" stroke-linejoin="miter" fill="none" stroke="#000000" d="M145.231-6.948H150.021"/>
<use data-text="&#x03d5;" xlink:href="#font_2_2" transform="matrix(6.9740097,0,0,-6.97394,86.54619,33.975404)"/>
</svg>
