<svg xmlns="http://www.w3.org/2000/svg" xmlns:xlink="http://www.w3.org/1999/xlink" xmlns:inkscape="http://www.inkscape.org/namespaces/inkscape" version="1.1" width="415" height="153" viewBox="0 0 415 153">
<defs>
<path id="font_1_2" d="M.1789856 .114868167C.13899231 .047973634 .099990848 .033981325 .055999757 .0309906 .04399109 .02999878 .034988405 .02999878 .034988405 .010986328 .034988405 .004989624 .039993287 0 .04798889 0 .07499695 0 .10598755 .0029907227 .13398743 .0029907227 .16699219 .0029907227 .20199585 0 .23399353 0 .23999024 0 .25299073 0 .25299073 .018997193 .25299073 .02999878 .24398804 .0309906 .23699951 .0309906 .21398926 .032989503 .18998719 .04096985 .18998719 .06593323 .18998719 .077926639 .19599915 .088897708 .20399475 .102890018L.27999879 .23068238H.5309906C.5329895 .2097168 .5469971 .07392883 .5469971 .063949588 .5469971 .033981325 .49499513 .0309906 .47499085 .0309906 .46099855 .0309906 .45098878 .0309906 .45098878 .010986328 .45098878 0 .46299745 0 .46499635 0 .5059967 0 .548996 .0029907227 .58999636 .0029907227 .61499026 .0029907227 .6779938 0 .7029877 0 .70899966 0 .72099307 0 .72099307 .019989014 .72099307 .0309906 .71099856 .0309906 .69799807 .0309906 .6359863 .0309906 .6359863 .037979127 .6329956 .06694031L.57199099 .691803C.56999209 .71180728 .56999209 .7158203 .5529938 .7158203 .5369873 .7158203 .5329895 .7088165 .5269928 .69880679L.1789856 .114868167M.29899598 .26168824 .49598695 .5917816 .5279999 .26168824H.29899598Z"/>
<path id="font_2_1" d="M.5289917 .1640625V.20005799H.41799928V.64582827C.41799928 .66682437 .41799928 .6738281 .3959961 .6738281 .38398744 .6738281 .37998963 .6738281 .36999513 .65982058L.038986207 .20005799V.1640625H.33299256V.08201599C.33299256 .04800415 .33299256 .035995485 .2519989 .035995485H.22499085V0C.2749939 .0019989014 .33898927 .0039978029 .375 .0039978029 .4119873 .0039978029 .47599793 .0019989014 .526001 0V.035995485H.49899293C.41799928 .035995485 .41799928 .04800415 .41799928 .08201599V.1640625H.5289917M.33999635 .5658722V.20005799H.07598877L.33999635 .5658722Z"/>
<path id="font_3_3" d="M.32798768 .71199038C.33299256 .72299197 .33299256 .72499087 .33299256 .7299957 .33299256 .7409973 .32398988 .75 .31298829 .75 .3039856 .75 .29699708 .7449951 .2899933 .72698977L.114990238 .2679901C.11299133 .2619934 .10998535 .2559967 .10998535 .25 .10998535 .24699402 .10998535 .24499512 .114990238 .23298645L.2899933-.22601319C.2939911-.23701477 .29899598-.25 .31298829-.25 .32398988-.25 .33299256-.24101258 .33299256-.23001099 .33299256-.227005 .33299256-.2250061 .32798768-.21400452L.15098572 .25 .32798768 .71199038Z"/>
<path id="font_4_1" d="M.33099366-.2400055C.33099366-.23701477 .33099366-.23500061 .31399537-.21800232 .18899536-.0920105 .15699768 .09700012 .15699768 .25 .15699768 .42399598 .19499207 .59799197 .31799317 .72299197 .33099366 .73498538 .33099366 .7369995 .33099366 .73999026 .33099366 .746994 .32699586 .75 .32099916 .75 .31098939 .75 .22099304 .6819916 .1619873 .5549927 .11099243 .44499208 .09899902 .33399964 .09899902 .25 .09899902 .17199707 .10998535 .050994874 .16499329-.06201172 .22499085-.18501282 .31098939-.25 .32099916-.25 .32699586-.25 .33099366-.24700928 .33099366-.2400055Z"/>
<path id="font_4_3" d="M.2939911 .64004519C.2939911 .66400149 .2939911 .6660156 .2709961 .6660156 .20899964 .60227969 .12098694 .60227969 .08898926 .60227969V.57128909C.10899353 .57128909 .16799927 .57128909 .21998596 .5972748V.07902527C.21998596 .042999269 .21699524 .0309906 .1269989 .0309906H.09498596V0C.12998963 .0029907227 .21699524 .0029907227 .25698854 .0029907227 .29699708 .0029907227 .38398744 .0029907227 .4189911 0V.0309906H.3869934C.29699708 .0309906 .2939911 .041992189 .2939911 .07902527V.64004519Z"/>
<path id="font_4_4" d="M.1269989 .07699585 .23298645 .18003845C.3889923 .31811524 .44898988 .3721466 .44898988 .47216798 .44898988 .5860901 .35899354 .6660156 .23699951 .6660156 .12399292 .6660156 .049987794 .57411196 .049987794 .48516847 .049987794 .4291687 .099990848 .4291687 .102996829 .4291687 .11999512 .4291687 .15499878 .44117738 .15499878 .48217774 .15499878 .5081787 .13699341 .5341797 .101989749 .5341797 .09399414 .5341797 .09199524 .5341797 .08898926 .5331726 .11199951 .59806826 .1659851 .63500979 .22399903 .63500979 .31498719 .63500979 .35798646 .5541382 .35798646 .47216798 .35798646 .39215089 .30799867 .31311036 .25299073 .25108338L.06098938 .036987306C.049987794 .025985718 .049987794 .023986817 .049987794 0H.42099L.44898988 .17404175H.42399598C.4189911 .14402771 .4119873 .1000061 .4019928 .084991458 .394989 .07699585 .32899476 .07699585 .30699159 .07699585H.1269989Z"/>
<path id="font_4_2" d="M.2889862 .25C.2889862 .32798768 .27799989 .44898988 .22299195 .56199648 .16299439 .68499758 .07699585 .75 .066986087 .75 .06098938 .75 .056991579 .74598696 .056991579 .73999026 .056991579 .7369995 .056991579 .73498538 .07598877 .71699526 .17399597 .6179962 .23098755 .45899964 .23098755 .25 .23098755 .07899475 .19400025-.09700012 .069992069-.2230072 .056991579-.23500061 .056991579-.23701477 .056991579-.2400055 .056991579-.2460022 .06098938-.25 .066986087-.25 .07699585-.25 .16699219-.18200684 .22599793-.055007936 .2769928 .054992677 .2889862 .16600037 .2889862 .25Z"/>
<path id="font_4_5" d="M.2899933 .35191346C.37199403 .37893678 .42999269 .4490509 .42999269 .52809146 .42999269 .6100464 .34199525 .6660156 .24598694 .6660156 .14498902 .6660156 .068984989 .60606387 .068984989 .53009036 .068984989 .49710084 .09098816 .47808839 .11999512 .47808839 .15098572 .47808839 .17098999 .50009158 .17098999 .5290985 .17098999 .57910159 .12399292 .57910159 .10899353 .57910159 .13999939 .62802127 .20599365 .64100649 .24198914 .64100649 .2829895 .64100649 .33799745 .6190338 .33799745 .5290985 .33799745 .51708987 .33599855 .45906068 .30999757 .4149933 .27999879 .36691285 .24598694 .36390687 .22099304 .36291505 .21299744 .36190797 .18899536 .35990907 .18199158 .35990907 .17399597 .35890199 .16699219 .35791017 .16699219 .3479004 .16699219 .33691407 .17399597 .33691407 .19099427 .33691407H.23498535C.31698609 .33691407 .35398866 .2686615 .35398866 .17037964 .35398866 .034469606 .2849884 .0055389406 .24099732 .0055389406 .19799805 .0055389406 .12298584 .022491456 .08799744 .08137512 .12298584 .07637024 .1539917 .09837341 .1539917 .1363678 .1539917 .17237854 .1269989 .19238281 .09799194 .19238281 .07398987 .19238281 .041992189 .17837525 .041992189 .1343689 .041992189 .043441774 .1349945-.022460938 .24398804-.022460938 .3659973-.022460938 .45700074 .06838989 .45700074 .17037964 .45700074 .252594 .3939972 .33088685 .2899933 .35191346Z"/>
<path id="font_4_6" d="M.2939911 .16503906V.07800293C.2939911 .041992189 .2919922 .0309906 .21798706 .0309906H.19699097V0C.23799134 .0029907227 .2899933 .0029907227 .33198548 .0029907227 .37399293 .0029907227 .4269867 .0029907227 .46798707 0V.0309906H.44699098C.37298585 .0309906 .37098695 .041992189 .37098695 .07800293V.16503906H.47099305V.19602967H.37098695V.65075686C.37098695 .67074587 .37098695 .6767578 .35499574 .6767578 .34599305 .6767578 .34298707 .6767578 .33499146 .66474917L.027999878 .19602967V.16503906H.2939911M.2999878 .19602967H.055999757L.2999878 .5688019V.19602967Z"/>
<path id="font_1_1" d="M.20298767 .0009918213C.20298767 .066986087 .17799378 .10598755 .13899231 .10598755 .10598755 .10598755 .085998538 .08099365 .085998538 .052993776 .085998538 .025985718 .10598755 0 .13899231 0 .15098572 0 .1639862 .0039978029 .17399597 .0129852299 .1769867 .01499939 .17799378 .015991211 .1789856 .015991211 .17999268 .015991211 .18099976 .01499939 .18099976 .0009918213 .18099976-.07316589 .1459961-.13328552 .11299133-.16635132 .101989749-.17736817 .101989749-.17936707 .101989749-.18237305 .101989749-.18936157 .10699463-.19335938 .11199951-.19335938 .12298584-.19335938 .20298767-.116256717 .20298767 .0009918213Z"/>
<path id="font_3_4" d="M.272995 .23298645C.27799989 .24499512 .27799989 .24699402 .27799989 .25 .27799989 .25299073 .27799989 .25498963 .272995 .2669983L.09799194 .72698977C.09199524 .74398806 .085998538 .75 .07499695 .75 .06399536 .75 .054992677 .7409973 .054992677 .7299957 .054992677 .72698977 .054992677 .72499087 .05999756 .71398928L.23699951 .25 .05999756-.21200562C.054992677-.2230072 .054992677-.2250061 .054992677-.23001099 .054992677-.24101258 .06399536-.25 .07499695-.25 .08799744-.25 .09199524-.2400055 .09599304-.23001099L.272995 .23298645Z"/>
<path id="font_3_1" d="M.2829895 .6169281C.2829895 .6569519 .30899049 .72099307 .41799928 .7279968 .4229889 .72898867 .4269867 .73298647 .4269867 .7389984 .4269867 .75 .4189911 .75 .4079895 .75 .30799867 .75 .21699524 .6989746 .21598816 .62493899V.3968048C.21598816 .3577881 .21598816 .32577516 .17599488 .29275514 .14099121 .2637329 .102996829 .261734 .08099365 .2607422 .07598877 .2597351 .07199097 .2557373 .07199097 .2497406 .07199097 .23973084 .07798767 .23973084 .08799744 .23873902 .1539917 .23474121 .20199585 .19876099 .21299744 .14978028 .21598816 .13879395 .21598816 .13679505 .21598816 .10081482V-.097076419C.21598816-.13905335 .21598816-.17103577 .2639923-.2090149 .30299378-.23901367 .36898805-.25 .4079895-.25 .4189911-.25 .4269867-.25 .4269867-.23901367 .4269867-.2290039 .42099-.2290039 .41099549-.22801209 .34799195-.22401428 .29899598-.19203186 .28599549-.14105225 .2829895-.13206482 .2829895-.13006592 .2829895-.09408569V.11579895C.2829895 .16177368 .2749939 .17877198 .24299622 .2107544 .22200012 .23173523 .19299317 .24172974 .16499329 .2497406 .24699402 .2727356 .2829895 .31877137 .2829895 .37680055V.6169281Z"/>
<path id="font_4_8" d="M.1769867 .4423828 .036987306 .43138124V.40037538C.101989749 .40037538 .11099243 .3943634 .11099243 .34532167V.076034549C.11099243 .0309906 .099990848 .0309906 .032989503 .0309906V0C.06498718 .0009918213 .11898804 .0029907227 .14299011 .0029907227 .17799378 .0029907227 .21299744 .0009918213 .24699402 0V.0309906C.18099976 .0309906 .1769867 .035995485 .1769867 .075042728V.4423828M.18099976 .6159363C.18099976 .64793398 .1559906 .6689453 .12799073 .6689453 .09700012 .6689453 .07499695 .64193728 .07499695 .6159363 .07499695 .5889435 .09700012 .5629425 .12799073 .5629425 .1559906 .5629425 .18099976 .5839386 .18099976 .6159363Z"/>
<path id="font_4_7" d="M.37998963 .055252077V-.0107421879L.5269928 .00024414063V.03125C.45700074 .03125 .44898988 .038253786 .44898988 .087265018V.69433596L.30499269 .68333438V.6523285C.375 .6523285 .3829956 .6453247 .3829956 .596344V.38035584C.35398866 .41636659 .31098939 .4423828 .25698854 .4423828 .13899231 .4423828 .033996583 .3443451 .033996583 .21531677 .033996583 .088272098 .13198853-.0107421879 .24598694-.0107421879 .30999757-.0107421879 .35499574 .023254395 .37998963 .055252077M.37998963 .323349V.118270877C.37998963 .1002655 .37998963 .0982666 .36898805 .08126831 .33898927 .0332489 .2939911 .011245728 .25099183 .011245728 .20599365 .011245728 .16999817 .037246705 .1459961 .07527161 .11999512 .11627197 .116989139 .17329407 .116989139 .21430969 .116989139 .25131227 .11898804 .31134034 .147995 .35635377 .16899109 .38735963 .20698548 .42037965 .26098634 .42037965 .29599 .42037965 .33799745 .405365 .36898805 .36035157 .37998963 .34335328 .37998963 .34135438 .37998963 .323349Z"/>
<path id="font_3_2" d="M.21598816-.11706543C.21598816-.15704346 .18998719-.2210083 .08099365-.22801209 .07598877-.2290039 .07199097-.23300171 .07199097-.23901367 .07199097-.25 .08299255-.25 .09199524-.25 .18899536-.25 .28199769-.20101929 .2829895-.12506104V.10282898C.2829895 .14179993 .2829895 .17378235 .32299806 .20677185 .35798646 .23576355 .3959961 .23776245 .41799928 .23875427 .4229889 .23976135 .4269867 .24375916 .4269867 .24975586 .4269867 .25976563 .42099 .25976563 .41099549 .26075746 .34498597 .26475526 .29699708 .30078126 .28599549 .34980775 .2829895 .36080934 .2829895 .36280824 .2829895 .39883424V.5969238C.2829895 .63894656 .2829895 .6709595 .23498535 .7089844 .19499207 .73999026 .12599182 .75 .09199524 .75 .08299255 .75 .07199097 .75 .07199097 .7389984 .07199097 .72898867 .07798767 .72898867 .08799744 .72798159 .15098572 .72398379 .19999695 .6919708 .21299744 .64094546 .21598816 .63194277 .21598816 .62994387 .21598816 .59391787V.38381959C.21598816 .33779908 .22399903 .32078553 .2559967 .28877259 .2769928 .26776124 .30599977 .25775147 .33399964 .24975586 .2519989 .22676087 .21598816 .18078614 .21598816 .12281799V-.11706543Z"/>
</defs>
<use data-text="A" xlink:href="#font_1_2" transform="matrix(9.962899,0,0,-9.963496,183.08814,9.058655)"/>
<use data-text="4" xlink:href="#font_2_1" transform="matrix(6.9740097,0,0,-6.9744279,190.56034,10.553787)"/>
<use data-text="&#x27e8;" xlink:href="#font_3_3" transform="matrix(9.962899,0,0,-9.963496,63.903566,43.26073)"/>
<use data-text="(" xlink:href="#font_4_1" transform="matrix(9.962899,0,0,-9.963496,67.778659,43.26073)"/>
<use data-text="1" xlink:href="#font_4_3" transform="matrix(9.962899,0,0,-9.963496,71.64426,43.26073)"/>
<use data-text="2" xlink:href="#font_4_4" transform="matrix(9.962899,0,0,-9.963496,76.6257,43.26073)"/>
<use data-text=")" xlink:href="#font_4_2" transform="matrix(9.962899,0,0,-9.963496,81.60715,43.26073)"/>
<use data-text="(" xlink:href="#font_4_1" transform="matrix(9.962899,0,0,-9.963496,85.47275,43.26073)"/>
<use data-text="3" xlink:href="#font_4_5" transform="matrix(9.962899,0,0,-9.963496,89.33835,43.26073)"/>
<use data-text="4" xlink:href="#font_4_6" transform="matrix(9.962899,0,0,-9.963496,94.31979,43.26073)"/>
<use data-text=")" xlink:href="#font_4_2" transform="matrix(9.962899,0,0,-9.963496,99.30121,43.26073)"/>
<use data-text="," xlink:href="#font_1_1" transform="matrix(9.962899,0,0,-9.963496,103.20273,43.26073)"/>
<use data-text="(" xlink:href="#font_4_1" transform="matrix(9.962899,0,0,-9.963496,107.62988,43.26073)"/>
<use data-text="1" xlink:href="#font_4_3" transform="matrix(9.962899,0,0,-9.963496,111.49545,43.26073)"/>
<use data-text="3" xlink:href="#font_4_5" transform="matrix(9.962899,0,0,-9.963496,116.4769,43.26073)"/>
<use data-text=")" xlink:href="#font_4_2" transform="matrix(9.962899,0,0,-9.963496,121.45834,43.26073)"/>
<use data-text="(" xlink:href="#font_4_1" transform="matrix(9.962899,0,0,-9.963496,125.323947,43.26073)"/>
<use data-text="2" xlink:href="#font_4_4" transform="matrix(9.962899,0,0,-9.963496,129.18955,43.26073)"/>
<use data-text="4" xlink:href="#font_4_6" transform="matrix(9.962899,0,0,-9.963496,134.17099,43.26073)"/>
<use data-text=")" xlink:href="#font_4_2" transform="matrix(9.962899,0,0,-9.963496,139.15244,43.26073)"/>
<use data-text="&#x27e9;" xlink:href="#font_3_4" transform="matrix(9.962899,0,0,-9.963496,143.05396,43.26073)"/>
<use data-text="&#x27e8;" xlink:href="#font_3_3" transform="matrix(9.962899,0,0,-9.963496,231.18955,78.4589)"/>
<use data-text="(" xlink:href="#font_4_1" transform="matrix(9.962899,0,0,-9.963496,235.06369,78.4589)"/>
<use data-text="1" xlink:href="#font_4_3" transform="matrix(9.962899,0,0,-9.963496,238.92929,78.4589)"/>
<use data-text="2" xlink:href="#font_4_4" transform="matrix(9.962899,0,0,-9.963496,243.91074,78.4589)"/>
<use data-text="3" xlink:href="#font_4_5" transform="matrix(9.962899,0,0,-9.963496,248.89225,78.4589)"/>
<use data-text=")" xlink:href="#font_4_2" transform="matrix(9.962899,0,0,-9.963496,253.87369,78.4589)"/>
<use data-text="&#x27e9;" xlink:href="#font_3_4" transform="matrix(9.962899,0,0,-9.963496,257.75736,78.4589)"/>
<use data-text="&#x27e8;" xlink:href="#font_3_3" transform="matrix(9.962899,0,0,-9.963496,282.17509,78.4589)"/>
<use data-text="(" xlink:href="#font_4_1" transform="matrix(9.962899,0,0,-9.963496,286.04924,78.4589)"/>
<use data-text="1" xlink:href="#font_4_3" transform="matrix(9.962899,0,0,-9.963496,289.91484,78.4589)"/>
<use data-text="2" xlink:href="#font_4_4" transform="matrix(9.962899,0,0,-9.963496,294.89634,78.4589)"/>
<use data-text="4" xlink:href="#font_4_6" transform="matrix(9.962899,0,0,-9.963496,299.87779,78.4589)"/>
<use data-text=")" xlink:href="#font_4_2" transform="matrix(9.962899,0,0,-9.963496,304.85923,78.4589)"/>
<use data-text="&#x27e9;" xlink:href="#font_3_4" transform="matrix(9.962899,0,0,-9.963496,308.7429,78.4589)"/>
<use data-text="&#x27e8;" xlink:href="#font_3_3" transform="matrix(9.962899,0,0,-9.963496,333.1616,78.4589)"/>
<use data-text="(" xlink:href="#font_4_1" transform="matrix(9.962899,0,0,-9.963496,337.03575,78.4589)"/>
<use data-text="1" xlink:href="#font_4_3" transform="matrix(9.962899,0,0,-9.963496,340.90135,78.4589)"/>
<use data-text="3" xlink:href="#font_4_5" transform="matrix(9.962899,0,0,-9.963496,345.88285,78.4589)"/>
<use data-text="4" xlink:href="#font_4_6" transform="matrix(9.962899,0,0,-9.963496,350.8643,78.4589)"/>
<use data-text=")" xlink:href="#font_4_2" transform="matrix(9.962899,0,0,-9.963496,355.8458,78.4589)"/>
<use data-text="&#x27e9;" xlink:href="#font_3_4" transform="matrix(9.962899,0,0,-9.963496,359.7294,78.4589)"/>
<use data-text="&#x27e8;" xlink:href="#font_3_3" transform="matrix(9.962899,0,0,-9.963496,384.14714,78.4589)"/>
<use data-text="(" xlink:href="#font_4_1" transform="matrix(9.962899,0,0,-9.963496,388.02128,78.4589)"/>
<use data-text="2" xlink:href="#font_4_4" transform="matrix(9.962899,0,0,-9.963496,391.88688,78.4589)"/>
<use data-text="3" xlink:href="#font_4_5" transform="matrix(9.962899,0,0,-9.963496,396.86839,78.4589)"/>
<use data-text="4" xlink:href="#font_4_6" transform="matrix(9.962899,0,0,-9.963496,401.84983,78.4589)"/>
<use data-text=")" xlink:href="#font_4_2" transform="matrix(9.962899,0,0,-9.963496,406.83134,78.4589)"/>
<use data-text="&#x27e9;" xlink:href="#font_3_4" transform="matrix(9.962899,0,0,-9.963496,410.715,78.4589)"/>
<use data-text="&#x27e8;" xlink:href="#font_3_3" transform="matrix(9.962899,0,0,-9.963496,.18865967,113.65707)"/>
<use data-text="(" xlink:href="#font_4_1" transform="matrix(9.962899,0,0,-9.963496,4.0627748,113.65707)"/>
<use data-text="1" xlink:href="#font_4_3" transform="matrix(9.962899,0,0,-9.963496,7.9283754,113.65707)"/>
<use data-text="2" xlink:href="#font_4_4" transform="matrix(9.962899,0,0,-9.963496,12.909821,113.65707)"/>
<use data-text=")" xlink:href="#font_4_2" transform="matrix(9.962899,0,0,-9.963496,17.891266,113.65707)"/>
<use data-text="(" xlink:href="#font_4_1" transform="matrix(9.962899,0,0,-9.963496,21.756836,113.65707)"/>
<use data-text="3" xlink:href="#font_4_5" transform="matrix(9.962899,0,0,-9.963496,25.622437,113.65707)"/>
<use data-text="4" xlink:href="#font_4_6" transform="matrix(9.962899,0,0,-9.963496,30.603882,113.65707)"/>
<use data-text=")" xlink:href="#font_4_2" transform="matrix(9.962899,0,0,-9.963496,35.585329,113.65707)"/>
<use data-text="&#x27e9;" xlink:href="#font_3_4" transform="matrix(9.962899,0,0,-9.963496,39.486848,113.65707)"/>
<use data-text="&#x27e8;" xlink:href="#font_3_3" transform="matrix(9.962899,0,0,-9.963496,83.83017,113.65707)"/>
<use data-text="(" xlink:href="#font_4_1" transform="matrix(9.962899,0,0,-9.963496,87.70526,113.65707)"/>
<use data-text="1" xlink:href="#font_4_3" transform="matrix(9.962899,0,0,-9.963496,91.57086,113.65707)"/>
<use data-text="3" xlink:href="#font_4_5" transform="matrix(9.962899,0,0,-9.963496,96.55231,113.65707)"/>
<use data-text=")" xlink:href="#font_4_2" transform="matrix(9.962899,0,0,-9.963496,101.53375,113.65707)"/>
<use data-text="(" xlink:href="#font_4_1" transform="matrix(9.962899,0,0,-9.963496,105.39935,113.65707)"/>
<use data-text="2" xlink:href="#font_4_4" transform="matrix(9.962899,0,0,-9.963496,109.26495,113.65707)"/>
<use data-text="4" xlink:href="#font_4_6" transform="matrix(9.962899,0,0,-9.963496,114.2464,113.65707)"/>
<use data-text=")" xlink:href="#font_4_2" transform="matrix(9.962899,0,0,-9.963496,119.22781,113.65707)"/>
<use data-text="&#x27e9;" xlink:href="#font_3_4" transform="matrix(9.962899,0,0,-9.963496,123.12933,113.65707)"/>
<use data-text="&#x27e8;" xlink:href="#font_3_3" transform="matrix(9.962899,0,0,-9.963496,167.47269,113.65707)"/>
<use data-text="(" xlink:href="#font_4_1" transform="matrix(9.962899,0,0,-9.963496,171.34781,113.65707)"/>
<use data-text="1" xlink:href="#font_4_3" transform="matrix(9.962899,0,0,-9.963496,175.21341,113.65707)"/>
<use data-text="4" xlink:href="#font_4_6" transform="matrix(9.962899,0,0,-9.963496,180.19483,113.65707)"/>
<use data-text=")" xlink:href="#font_4_2" transform="matrix(9.962899,0,0,-9.963496,185.17627,113.65707)"/>
<use data-text="(" xlink:href="#font_4_1" transform="matrix(9.962899,0,0,-9.963496,189.04187,113.65707)"/>
<use data-text="1" xlink:href="#font_4_3" transform="matrix(9.962899,0,0,-9.963496,192.90744,113.65707)"/>
<use data-text="2" xlink:href="#font_4_4" transform="matrix(9.962899,0,0,-9.963496,197.88895,113.65707)"/>
<use data-text=")" xlink:href="#font_4_2" transform="matrix(9.962899,0,0,-9.963496,202.87039,113.65707)"/>
<use data-text="&#x27e9;" xlink:href="#font_3_4" transform="matrix(9.962899,0,0,-9.963496,206.77085,113.65707)"/>
<use data-text="{" xlink:href="#font_3_1" transform="matrix(9.962899,0,0,-9.963496,179.92606,148.85523)"/>
<use data-text="i" xlink:href="#font_4_8" transform="matrix(9.962899,0,0,-9.963496,184.9082,148.85523)"/>
<use data-text="d" xlink:href="#font_4_7" transform="matrix(9.962899,0,0,-9.963496,187.66794,148.85523)"/>
<use data-text="}" xlink:href="#font_3_2" transform="matrix(9.962899,0,0,-9.963496,193.21045,148.85523)"/>
<path transform="matrix(1.00003,0,0,-1.00009,207.39186,76.797748)" stroke-width=".39848" stroke-linecap="butt" stroke-miterlimit="10" stroke-linejoin="miter" fill="none" stroke="#000000" d="M-80.38498 44.8563-28.7932 65.94992"/>
<path transform="matrix(1.00003,0,0,-1.00009,207.39186,76.797748)" stroke-width=".39848" stroke-linecap="butt" stroke-miterlimit="10" stroke-linejoin="miter" fill="none" stroke="#000000" d="M31.72652 9.66075-11.86092 62.3908"/>
<path transform="matrix(1.00003,0,0,-1.00009,207.39186,76.797748)" stroke-width=".39848" stroke-linecap="butt" stroke-miterlimit="10" stroke-linejoin="miter" fill="none" stroke="#000000" d="M76.22667 9.66075-7.86526 63.52998"/>
<path transform="matrix(1.00003,0,0,-1.00009,207.39186,76.797748)" stroke-width=".39848" stroke-linecap="butt" stroke-miterlimit="10" stroke-linejoin="miter" fill="none" stroke="#000000" d="M121.27693 9.40584-7.86526 65.6764"/>
<path transform="matrix(1.00003,0,0,-1.00009,207.39186,76.797748)" stroke-width=".39848" stroke-linecap="butt" stroke-miterlimit="10" stroke-linejoin="miter" fill="none" stroke="#000000" d="M172.262 7.3215-7.86526 66.77747"/>
<path transform="matrix(1.00003,0,0,-1.00009,207.39186,76.797748)" stroke-width=".39848" stroke-linecap="butt" stroke-miterlimit="10" stroke-linejoin="miter" fill="none" stroke="#000000" d="M-175.12358-25.53476-112.45634 27.19527"/>
<path transform="matrix(1.00003,0,0,-1.00009,207.39186,76.797748)" stroke-width=".39848" stroke-linecap="butt" stroke-miterlimit="10" stroke-linejoin="miter" fill="none" stroke="#000000" d="M-101.97012-25.53476V27.19527"/>
<path transform="matrix(1.00003,0,0,-1.00009,207.39186,76.797748)" stroke-width=".39848" stroke-linecap="butt" stroke-miterlimit="10" stroke-linejoin="miter" fill="none" stroke="#000000" d="M-28.81667-25.53476-91.4839 27.19527"/>
<path transform="matrix(1.00003,0,0,-1.00009,207.39186,76.797748)" stroke-width=".39848" stroke-linecap="butt" stroke-miterlimit="10" stroke-linejoin="miter" fill="none" stroke="#000000" d="M-31.95499-66.69618-159.53174-39.84764"/>
<path transform="matrix(1.00003,0,0,-1.00009,207.39186,76.797748)" stroke-width=".39848" stroke-linecap="butt" stroke-miterlimit="10" stroke-linejoin="miter" fill="none" stroke="#000000" d="M-31.95499-63.8276-80.9862-43.19577"/>
<path transform="matrix(1.00003,0,0,-1.00009,207.39186,76.797748)" stroke-width=".39848" stroke-linecap="butt" stroke-miterlimit="10" stroke-linejoin="miter" fill="none" stroke="#000000" d="M-18.32922-60.73029V-43.19577"/>
<path transform="matrix(1.00003,0,0,-1.00009,207.39186,76.797748)" stroke-width=".39848" stroke-linecap="butt" stroke-miterlimit="10" stroke-linejoin="miter" fill="none" stroke="#000000" d="M-11.13829-60.73029 31.83081-8.00024"/>
<path transform="matrix(1.00003,0,0,-1.00009,207.39186,76.797748)" stroke-width=".39848" stroke-linecap="butt" stroke-miterlimit="10" stroke-linejoin="miter" fill="none" stroke="#000000" d="M-4.74539-60.73029 76.42366-8.00024"/>
<path transform="matrix(1.00003,0,0,-1.00009,207.39186,76.797748)" stroke-width=".39848" stroke-linecap="butt" stroke-miterlimit="10" stroke-linejoin="miter" fill="none" stroke="#000000" d="M-4.70348-63.54797 121.27693-7.86235"/>
<path transform="matrix(1.00003,0,0,-1.00009,207.39186,76.797748)" stroke-width=".39848" stroke-linecap="butt" stroke-miterlimit="10" stroke-linejoin="miter" fill="none" stroke="#000000" d="M-4.70348-65.0071 172.262-5.75815"/>
</svg>
