<svg xmlns="http://www.w3.org/2000/svg" xmlns:xlink="http://www.w3.org/1999/xlink" xmlns:inkscape="http://www.inkscape.org/namespaces/inkscape" version="1.1" width="111" height="37" viewBox="0 0 111 37">
<defs>
<path id="font_1_1" d="M.375 .6136017C.3809967 .63760378 .38398744 .6476135 .40299989 .65060427 .4119873 .6516113 .44400025 .6516113 .46398927 .6516113 .5349884 .6516113 .6459961 .6516113 .6459961 .5525818 .6459961 .51856997 .6299896 .44955445 .59098818 .41055299 .5649872 .38453675 .5119934 .35253907 .42199708 .35253907H.30999757L.375 .6136017M.5189972 .33953858C.6199951 .3615265 .7389984 .43154908 .7389984 .5325775 .7389984 .61860659 .6489868 .6826172 .5179901 .6826172H.23298645C.21299744 .6826172 .20399475 .6826172 .20399475 .6626129 .20399475 .6516113 .21299744 .6516113 .23199463 .6516113 .23399353 .6516113 .25299073 .6516113 .269989 .6496124 .28799439 .6476135 .29699708 .64660647 .29699708 .63360598 .29699708 .62960818 .29599 .6266022 .29299928 .6145935L.15899658 .07752991C.14898682 .038528444 .14698792 .030532837 .067993167 .030532837 .049987794 .030532837 .040985109 .030532837 .040985109 .010528564 .040985109-.00047302247 .052993776-.00047302247 .054992677-.00047302247 .08299255-.00047302247 .15299988 .002532959 .18099976 .002532959 .20899964 .002532959 .27999879-.00047302247 .30799867-.00047302247 .31599427-.00047302247 .32798768-.00047302247 .32798768 .01953125 .32798768 .030532837 .31900025 .030532837 .2999878 .030532837 .2630005 .030532837 .23498535 .030532837 .23498535 .048538209 .23498535 .054534913 .23699951 .059524537 .23799134 .0655365L.3039856 .3305359H.4229889C.5139923 .3305359 .5319977 .27453614 .5319977 .23953247 .5319977 .22453308 .5239868 .19352722 .5179901 .17053223 .5109863 .14253235 .5019989 .105529788 .5019989 .08552551 .5019989-.022460938 .621994-.022460938 .6349945-.022460938 .7200012-.022460938 .7549896 .07853699 .7549896 .0925293 .7549896 .104537967 .74398806 .104537967 .7429962 .104537967 .73399356 .104537967 .7319946 .09753418 .7299957 .090530399 .7049866 .016525269 .6619873-.00047302247 .6389923-.00047302247 .60598757-.00047302247 .598999 .021530152 .598999 .060531618 .598999 .091537479 .6049957 .14253235 .60899356 .17453003 .61099246 .1885376 .61299136 .20753479 .61299136 .2215271 .61299136 .2985382 .54599 .3295288 .5189972 .33953858Z"/>
<path id="font_2_1" d="M.25498963-.25V-.21000672H.1579895V.70999148H.25498963V.75H.117996219V-.25H.25498963Z"/>
<path id="font_1_3" d="M.33399964 .30233766C.33999635 .32835389 .36299134 .42037965 .43299867 .42037965 .43798829 .42037965 .46199037 .42037965 .48298646 .40734864 .45498658 .402359 .43499757 .37734986 .43499757 .35334779 .43499757 .33735658 .44599916 .31835938 .47299195 .31835938 .49499513 .31835938 .5269928 .3363495 .5269928 .37635804 .5269928 .42837525 .46798707 .4423828 .43399049 .4423828 .37599183 .4423828 .34098817 .38935853 .32899476 .36634828 .3039856 .43237306 .25 .4423828 .22099304 .4423828 .116989139 .4423828 .05999756 .3133545 .05999756 .28834535 .05999756 .27833558 .069992069 .27833558 .07199097 .27833558 .07998657 .27833558 .08299255 .28033448 .084991458 .28933717 .11898804 .39535523 .18499756 .42037965 .21899414 .42037965 .23799134 .42037965 .272995 .4113617 .272995 .35334779 .272995 .32235719 .2559967 .25532533 .21899414 .11528015 .20298767 .053268434 .16799927 .011245728 .12399292 .011245728 .117996219 .011245728 .09498596 .011245728 .07398987 .024276734 .09899902 .029266358 .12098694 .05027771 .12098694 .07827759 .12098694 .105270389 .09899902 .11328125 .083999637 .11328125 .053985597 .11328125 .0289917 .08728027 .0289917 .055267335 .0289917 .009246826 .07899475-.0107421879 .12298584-.0107421879 .18899536-.0107421879 .22499085 .059280397 .22799683 .0652771 .23999024 .028274537 .27598573-.0107421879 .33599855-.0107421879 .43899537-.0107421879 .49598695 .118270877 .49598695 .14328003 .49598695 .1532898 .4869995 .1532898 .48399354 .1532898 .47499085 .1532898 .47299195 .14929199 .47099305 .14228821 .43798829 .03527832 .36999513 .011245728 .33799745 .011245728 .29899598 .011245728 .2829895 .043273927 .2829895 .07727051 .2829895 .09927368 .2889862 .121276859 .2999878 .16529846L.33399964 .30233766Z"/>
<path id="font_2_2" d="M.15899658 .75H.021987915V.70999148H.11898804V-.21000672H.021987915V-.25H.15899658V.75Z"/>
<path id="font_1_2" d="M.644989 .69506838C.644989 .69807437 .6429901 .7050781 .6339874 .7050781 .6289978 .7050781 .6279907 .70407107 .6159973 .6900635L.56799319 .6330414C.5419922 .68006899 .48999024 .7050781 .4249878 .7050781 .2979889 .7050781 .17799378 .58999636 .17799378 .4689026 .17799378 .38783265 .23098755 .34179688 .28199769 .32678224L.3889923 .2987671C.42599488 .2897644 .48098756 .27474977 .48098756 .19267273 .48098756 .1026001 .39898683 .008529663 .30099488 .008529663 .23699951 .008529663 .12599182 .030548096 .12599182 .15464783 .12599182 .17866516 .1309967 .2026825 .13198853 .20869446 .1329956 .21269226 .13398743 .21369934 .13398743 .21569824 .13398743 .22570801 .1269989 .22669983 .12199402 .22669983 .116989139 .22669983 .114990238 .22570801 .11199951 .22270203 .10798645 .21870423 .051986696-.009475708 .051986696-.012466431 .051986696-.018463135 .056991579-.022460938 .06298828-.022460938 .067993167-.022460938 .068984989-.021469117 .08099365-.007461548L.12998963 .049560548C.17298889-.008468628 .24099732-.022460938 .29899598-.022460938 .43499757-.022460938 .5529938 .11061096 .5529938 .2347107 .5529938 .30377198 .5189972 .33779908 .5039978 .35180665 .48098756 .37483216 .46598817 .37882997 .3769989 .40185548 .35499574 .40785218 .31900025 .41786195 .30999757 .41986085 .2829895 .42886354 .24899292 .457901 .24899292 .51094058 .24899292 .59199526 .32899476 .677063 .42399598 .677063 .5069885 .677063 .56799319 .6340332 .56799319 .52194216 .56799319 .48991395 .56399539 .47190858 .56399539 .4658966 .56399539 .4649048 .56399539 .45588685 .57598879 .45588685 .58599856 .45588685 .58699038 .45889283 .59098818 .47590638L.644989 .69506838Z"/>
<path id="font_3_3" d="M.5439911 .6673279C.5469971 .6773224 .5469971 .68133547 .5469971 .6823273 .5469971 .69433596 .5339966 .69433596 .5309906 .69433596 .5159912 .69433596 .5159912 .6903229 .5109863 .67233279L.34799195 .020233155C.2659912 .030227662 .22200012 .06524658 .22200012 .13227844 .22200012 .14727783 .22200012 .17529297 .27198792 .29934693 .27999879 .32136537 .2869873 .33836366 .2869873 .3553772 .2869873 .4073944 .24299622 .44140626 .19198609 .44140626 .09199524 .44140626 .04699707 .3043518 .04699707 .28834535 .04699707 .27534486 .06098938 .27534486 .06399536 .27534486 .07798767 .27534486 .07899475 .28033448 .08198547 .29135133 .10598755 .37338258 .1499939 .4133911 .18899536 .4133911 .20599365 .4133911 .21398926 .40238954 .21398926 .37838746 .21398926 .3553772 .20599365 .33636476 .19499207 .3063507 .14498902 .18029785 .14498902 .1572876 .14498902 .13928223 .14498902 .024230957 .2659912-.003768921 .34098817-.0077667238 .33399964-.033813478 .29599-.18710327 .29599-.19111634 .29599-.20410156 .30799867-.20410156 .31199647-.20410156 .32598878-.20410156 .32798768-.19911194 .33198548-.18310547L.375-.009765625C.4139862-.009765625 .5059967-.009765625 .61099246 .09526062 .6380005 .12327576 .6649933 .15829468 .68299868 .20230103 .69699099 .23532105 .71798709 .3173523 .71798709 .3633728 .71798709 .44140626 .67099 .44239808 .66799929 .44239808 .6419983 .44239808 .6139984 .41540528 .6139984 .38938905 .6139984 .3723755 .6239929 .36437989 .6279907 .3613739 .6439972 .34736634 .66799929 .32235719 .66799929 .27833558 .66799929 .19430542 .5529938 .018234253 .38198854 .018234253L.5439911 .6673279Z"/>
<path id="font_3_2" d="M.49198915 .68133547C.49198915 .69433596 .47999574 .69433596 .47499085 .69433596 .45999146 .69433596 .45899964 .68933108 .45498658 .67233279L.397995 .44335938C.22099304 .4353485 .069992069 .30833436 .069992069 .17430115 .069992069 .061279298 .17298889-.006729126 .28399659-.010726929 .27598573-.041793825 .2689972-.0738678 .26098634-.10493469 .24899292-.15203858 .23999024-.18910218 .23999024-.19210816 .23999024-.20410156 .25299073-.20410156 .2559967-.20410156 .2709961-.20410156 .27198792-.20111084 .2769928-.18009949L.31900025-.01171875C.48999024-.0047302248 .6469879 .121292117 .6469879 .25732423 .6469879 .3623352 .5549927 .4373474 .43299867 .4423523L.49198915 .68133547M.29100038 .01727295C.21398926 .021270752 .14299011 .0632782 .14299011 .15730286 .14299011 .25732423 .21899414 .39834596 .3899994 .41435243L.29100038 .01727295M.4249878 .41435243C.5019989 .41134645 .57398989 .369339 .57398989 .2743225 .57398989 .16529846 .48799134 .031280519 .32598878 .01727295L.4249878 .41435243Z"/>
<path id="font_3_1" d="M.34899903 .22375489C.3639984 .22375489 .3829956 .22375489 .3829956 .24275208 .3829956 .25976563 .36799623 .25976563 .34899903 .25976563H.16999817C.19999695 .35069276 .2649994 .39465333 .35299684 .39465333H.3909912C.40699769 .39465333 .42599488 .39465333 .42599488 .4136505 .42599488 .43066407 .4119873 .43066407 .3929901 .43066407H.34999085C.21699524 .43066407 .067993167 .33769227 .067993167 .18583679 .067993167 .069107059 .15699768-.009765625 .272995-.009765625 .30299378-.009765625 .34498597-.004776001 .397995 .02520752 .41799928 .03617859 .41999818 .03918457 .41999818 .045166017 .41999818 .04815674 .41999818 .06512451 .40499879 .06512451 .40098573 .06512451 .39898683 .06411743 .3929901 .060134889 .35798646 .03718567 .31599427 .018234253 .2749939 .018234253 .23498535 .018234253 .1519928 .03817749 .1519928 .1519165 .1519928 .16589356 .1519928 .18583679 .16099549 .22375489H.34899903Z"/>
<path id="font_4_1" d="M.5069885 .37800599C.47200013 .36798097 .46699525 .33798219 .46699525 .32798768 .46699525 .30297853 .48799134 .2919922 .5049896 .2919922 .5169983 .2919922 .55799868 .3009796 .55799868 .35398866 .55799868 .42137147 .47898866 .4423828 .4039917 .4423828 .23498535 .4423828 .20298767 .33898927 .20298767 .30297853 .20298767 .26701356 .22399903 .24604798 .24198914 .23207093 .269989 .21209717 .2999878 .20809937 .35299684 .19911194 .41600038 .18913269 .48599244 .17814636 .48599244 .12716675 .48599244 .12617493 .48599244 .023254395 .3019867 .023254395 .2639923 .023254395 .20199585 .026245118 .16999817 .057174684 .20599365 .06517029 .22200012 .094177249 .22200012 .11817932 .22200012 .1461792 .20098877 .15917969 .1789856 .15917969 .14498902 .15917969 .114990238 .13217163 .114990238 .08717346 .114990238-.0107421879 .2709961-.0107421879 .2999878-.0107421879 .5049896-.0107421879 .5399933 .107177738 .5399933 .1481781 .5399933 .23806763 .42999269 .2550354 .37799073 .26402284 .30699159 .27500917 .2579956 .2829895 .2579956 .32398988 .2579956 .3249817 .2579956 .40837098 .4019928 .40837098 .42799378 .40837098 .48098756 .40634156 .5069885 .37800599Z"/>
</defs>
<use data-text="R" xlink:href="#font_1_1" transform="matrix(9.963098,0,0,-9.963098,1.1903534,12.783939)"/>
<use data-text="[" xlink:href="#font_2_1" transform="matrix(9.963098,0,0,-9.963098,8.832733,12.783939)"/>
<use data-text="x" xlink:href="#font_1_3" transform="matrix(9.963098,0,0,-9.963098,11.599869,12.783939)"/>
<use data-text="]" xlink:href="#font_2_2" transform="matrix(9.963098,0,0,-9.963098,17.294159,12.783939)"/>
<use data-text="S" xlink:href="#font_1_2" transform="matrix(9.963098,0,0,-9.963098,52.561906,12.783939)"/>
<use data-text="[" xlink:href="#font_2_1" transform="matrix(9.963098,0,0,-9.963098,59.24524,12.783939)"/>
<use data-text="x" xlink:href="#font_1_3" transform="matrix(9.963098,0,0,-9.963098,62.012376,12.783939)"/>
<use data-text="]" xlink:href="#font_2_2" transform="matrix(9.963098,0,0,-9.963098,67.706668,12.783939)"/>
<use data-text="S" xlink:href="#font_1_2" transform="matrix(9.963098,0,0,-9.963098,102.97345,12.783939)"/>
<path transform="matrix(1.00005,0,0,-1.00005,55.424074,10.292814)" stroke-width=".39848" stroke-linecap="butt" stroke-miterlimit="10" stroke-linejoin="miter" fill="none" stroke="#000000" d="M-30.86783 0H-7.75421"/>
<path transform="matrix(1.00005,0,0,-1.00005,47.868715,10.292814)" stroke-width=".39848" stroke-linecap="round" stroke-linejoin="round" fill="none" stroke="#000000" d="M-2.07213 2.39091C-1.69356 .95633-.84995 .27893 0 0-.84995-.27893-1.69356-.95633-2.07213-2.39091"/>
<use data-text="&#x03c8;" xlink:href="#font_3_3" transform="matrix(6.9741489,0,0,-6.9741489,33.54998,6.59063)"/>
<path transform="matrix(1.00005,0,0,-1.00005,55.424074,10.292814)" stroke-width=".39848" stroke-linecap="butt" stroke-miterlimit="10" stroke-linejoin="miter" fill="none" stroke="#000000" d="M-30.86783-8.03217C-5.14746-21.29597 18.70793-20.16068 42.71973-4.73352"/>
<path transform="matrix(.841322,-.540537,-.540537,-.841322,98.313549,14.918896)" stroke-width=".39848" stroke-linecap="round" stroke-linejoin="round" fill="none" stroke="#000000" d="M-2.07213 2.39091C-1.69356 .95633-.84995 .27893 0 0-.84995-.27893-1.69356-.95633-2.07213-2.39091"/>
<use data-text="&#x03d5;" xlink:href="#font_3_2" transform="matrix(6.9741489,0,0,-6.9741489,59.637285,34.59803)"/>
<path transform="matrix(1.00005,0,0,-1.00005,55.424074,10.292814)" stroke-width=".39848" stroke-linecap="butt" stroke-miterlimit="10" stroke-linejoin="miter" fill="none" stroke="#000000" d="M19.54286 0H42.65646"/>
<path transform="matrix(1.00005,0,0,-1.00005,98.28192,10.292814)" stroke-width=".39848" stroke-linecap="round" stroke-linejoin="round" fill="none" stroke="#000000" d="M-2.07213 2.39091C-1.69356 .95633-.84995 .27893 0 0-.84995-.27893-1.69356-.95633-2.07213-2.39091"/>
<use data-text="&#x03f5;" xlink:href="#font_3_1" transform="matrix(6.9741489,0,0,-6.9741489,83.145458,6.950648)"/>
<use data-text="s" xlink:href="#font_4_1" transform="matrix(4.981549,0,0,-4.981549,86.46662,7.9466979)"/>
</svg>
