<svg xmlns="http://www.w3.org/2000/svg" xmlns:xlink="http://www.w3.org/1999/xlink" xmlns:inkscape="http://www.inkscape.org/namespaces/inkscape" version="1.1" width="218" height="116" viewBox="0 0 218 116">
<defs>
<path id="font_1_4" d="M.47099305 .3773346C.47200013 .3833313 .47399903 .38833619 .47399903 .39535523 .47399903 .41236878 .46199037 .42237855 .44499208 .42237855 .43499757 .42237855 .4079895 .41537477 .4039917 .3793335 .38598634 .41636659 .35099793 .4423828 .31098939 .4423828 .19699097 .4423828 .07299805 .30226136 .07299805 .15812683 .07299805 .059020997 .13398743 0 .20599365 0 .2649994 0 .31199647 .04701233 .32199098 .058029176L.32299806 .057022096C.3019867-.031982423 .2899933-.07295227 .2899933-.07495117 .28599549-.08395386 .2519989-.18309021 .1459961-.18309021 .1269989-.18309021 .09399414-.18206787 .06599426-.17297364 .09599304-.16394043 .10699463-.13793946 .10699463-.12094116 .10699463-.10494995 .09599304-.0859375 .068984989-.0859375 .04699707-.0859375 .01499939-.10394287 .01499939-.14395142 .01499939-.18508911 .051986696-.20507813 .147995-.20507813 .272995-.20507813 .34498597-.12693787 .3600006-.06695557L.47099305 .3773346M.34098817 .12809754C.33499146 .10206604 .31199647 .077041629 .2899933 .058029176 .2689972 .040008546 .23799134 .021987915 .20899964 .021987915 .15899658 .021987915 .14399719 .074035648 .14399719 .11407471 .14399719 .16212464 .17298889 .28024293 .19999695 .33128358 .22698975 .38034059 .269989 .42037965 .31199647 .42037965 .37799073 .42037965 .3919983 .33929444 .3919983 .33428956 .3919983 .32928468 .3899994 .3232727 .3889923 .3192749L.34098817 .12809754Z"/>
<path id="font_2_1" d="M.33499146 .63612368C.33499146 .6630554 .33299256 .6640625 .30499269 .6640625 .24099732 .6014404 .1499939 .6004486 .10899353 .6004486V.5644531C.1329956 .5644531 .19898987 .5644531 .2539978 .592453V.08203125C.2539978 .04899597 .2539978 .035995485 .1539917 .035995485H.115997318V0C.13398743 .0009918213 .25698854 .0039978029 .2939911 .0039978029 .32499696 .0039978029 .45098878 .0009918213 .47299195 0V.035995485H.43499757C.33499146 .035995485 .33499146 .04899597 .33499146 .08203125V.63612368Z"/>
<path id="font_1_1" d="M.43699647 .67033389C.43699647 .67233279 .43998719 .68333438 .43998719 .6843262 .43998719 .68533328 .43998719 .69433596 .42799378 .69433596 .41799928 .69433596 .4169922 .69132998 .41299439 .67433169L.35499574 .44337464C.19599915 .43836976 .04899597 .30532838 .04899597 .169281 .04899597 .07424927 .11898804-.004776001 .24099732-.011779785 .23298645-.04283142 .22599793-.07489014 .21798706-.10594177 .20599365-.1530304 .19599915-.19108582 .19599915-.1940918 .19599915-.2040863 .20298767-.20507813 .20799256-.20507813 .21299744-.20507813 .21499634-.2040863 .21798706-.20108032 .21998596-.19908142 .22599793-.17506409 .22898865-.16104126L.2669983-.011779785C.42799378-.0067749025 .57299807 .12826538 .57299807 .26231385 .57299807 .3413391 .519989 .43338014 .3809967 .44337464L.43699647 .67033389M.24598694 .010223389C.18598938 .01322937 .11399841 .048233034 .11399841 .14826966 .11399841 .2683258 .19999695 .40837098 .34899903 .42137147L.24598694 .010223389M.375 .42137147C.45098878 .41737367 .5079956 .37135316 .5079956 .2833252 .5079956 .1652832 .42199708 .022232056 .27198792 .010223389L.375 .42137147Z"/>
<path id="font_3_1" d="M.74398806 .2263794C.7599945 .2263794 .7839966 .2263794 .7839966 .25038148 .7839966 .27539063 .7609863 .27539063 .74398806 .27539063H.147995C.13198853 .27539063 .10798645 .27539063 .10798645 .25138856 .10798645 .2263794 .1309967 .2263794 .147995 .2263794H.74398806Z"/>
<path id="font_4_1" d="M.33099366-.2400055C.33099366-.23701477 .33099366-.23500061 .31399537-.21800232 .18899536-.0920105 .15699768 .09700012 .15699768 .25 .15699768 .42399598 .19499207 .59799197 .31799317 .72299197 .33099366 .73498538 .33099366 .7369995 .33099366 .73999026 .33099366 .746994 .32699586 .75 .32099916 .75 .31098939 .75 .22099304 .6819916 .1619873 .5549927 .11099243 .44499208 .09899902 .33399964 .09899902 .25 .09899902 .17199707 .10998535 .050994874 .16499329-.06201172 .22499085-.18501282 .31098939-.25 .32099916-.25 .32699586-.25 .33099366-.24700928 .33099366-.2400055Z"/>
<path id="font_1_5" d="M.2869873 .68333438C.2869873 .6843262 .2869873 .69433596 .27398683 .69433596 .25099183 .69433596 .17799378 .6863251 .1519928 .6843262 .14399719 .68333438 .1329956 .6823273 .1329956 .6643219 .1329956 .6523285 .14199829 .6523285 .15699768 .6523285 .20498657 .6523285 .20698548 .6453247 .20698548 .6353302L.20399475 .6153412 .05899048 .039260866C.054992677 .025253296 .054992677 .023254395 .054992677 .01725769 .054992677-.0057525637 .07499695-.0107421879 .083999637-.0107421879 .099990848-.0107421879 .115997318 .0012512207 .12098694 .015258789L.13999939 .091278079 .1619873 .18130493C.16799927 .2033081 .17399597 .22531128 .1789856 .24832154 .18099976 .25431825 .18899536 .28733827 .18998719 .29333497 .19299317 .30233766 .22399903 .35835267 .2579956 .38536073 .27999879 .4013672 .31098939 .42037965 .35398866 .42037965 .39698792 .42037965 .4079895 .3863678 .4079895 .35035707 .4079895 .29634095 .36999513 .18730164 .34599305 .12628174 .33799745 .103271488 .33299256 .091278079 .33299256 .0712738 .33299256 .024261475 .36799623-.0107421879 .4149933-.0107421879 .5089874-.0107421879 .54599 .13528443 .54599 .14329529 .54599 .1532898 .5369873 .1532898 .5339966 .1532898 .5239868 .1532898 .5239868 .15029907 .5189972 .13528443 .5039978 .08227539 .47200013 .011245728 .4169922 .011245728 .3999939 .011245728 .3929901 .021255494 .3929901 .044265748 .3929901 .0692749 .4019928 .09327698 .41099549 .11528015 .4269867 .15829468 .47200013 .2773285 .47200013 .3353424 .47200013 .4003601 .43199159 .4423828 .35699464 .4423828 .2939911 .4423828 .24598694 .41137696 .20899964 .36535646L.2869873 .68333438Z"/>
<path id="font_1_6" d="M.08799744 .059265138C.084991458 .044265748 .07899475 .021255494 .07899475 .01625061 .07899475-.0017547608 .09298706-.0107421879 .10798645-.0107421879 .11999512-.0107421879 .13798523-.002746582 .14498902 .01725769 .1459961 .019256592 .1579895 .06626892 .1639862 .091278079L.18598938 .18130493C.19198609 .2033081 .19799805 .22531128 .20298767 .24832154 .20698548 .26531983 .21499634 .29434205 .21598816 .29833985 .23098755 .3293457 .28399659 .42037965 .3789978 .42037965 .42399598 .42037965 .43299867 .38336183 .43299867 .35035707 .43299867 .28833009 .38398744 .16029358 .36799623 .11727905 .35899354 .0942688 .35798646 .08227539 .35798646 .0712738 .35798646 .024261475 .3929901-.0107421879 .43998719-.0107421879 .5339966-.0107421879 .57099917 .13528443 .57099917 .14329529 .57099917 .1532898 .56199648 .1532898 .5589905 .1532898 .548996 .1532898 .548996 .15029907 .5439911 .13528443 .5239868 .06726074 .4909973 .011245728 .44198609 .011245728 .4249878 .011245728 .41799928 .021255494 .41799928 .044265748 .41799928 .0692749 .4269867 .09327698 .43598939 .11528015 .45498658 .16830445 .49699403 .27833558 .49699403 .3353424 .49699403 .40237428 .45399476 .4423828 .38198854 .4423828 .2919922 .4423828 .24299622 .37835694 .22599793 .35534669 .22099304 .41137696 .17999268 .4423828 .13398743 .4423828 .08799744 .4423828 .068984989 .4033661 .05899048 .38536073 .042999269 .35134889 .0289917 .29232789 .0289917 .28833009 .0289917 .27833558 .038986207 .27833558 .040985109 .27833558 .050994874 .27833558 .051986696 .2793274 .057998659 .30133058 .07499695 .37236024 .09498596 .42037965 .1309967 .42037965 .15098572 .42037965 .1619873 .4073639 .1619873 .37435914 .1619873 .35334779 .15899658 .3423462 .1459961 .29032899L.08799744 .059265138Z"/>
<path id="font_4_2" d="M.2889862 .25C.2889862 .32798768 .27799989 .44898988 .22299195 .56199648 .16299439 .68499758 .07699585 .75 .066986087 .75 .06098938 .75 .056991579 .74598696 .056991579 .73999026 .056991579 .7369995 .056991579 .73498538 .07598877 .71699526 .17399597 .6179962 .23098755 .45899964 .23098755 .25 .23098755 .07899475 .19400025-.09700012 .069992069-.2230072 .056991579-.23500061 .056991579-.23701477 .056991579-.2400055 .056991579-.2460022 .06098938-.25 .066986087-.25 .07699585-.25 .16699219-.18200684 .22599793-.055007936 .2769928 .054992677 .2889862 .16600037 .2889862 .25Z"/>
<path id="font_1_2" d="M.7599945 .69506838C.7599945 .69807437 .7579956 .7050781 .7489929 .7050781 .74598696 .7050781 .7449951 .70407107 .73399356 .69306948L.6639862 .61598208C.6549988 .6300049 .60899356 .7050781 .49798585 .7050781 .2749939 .7050781 .049987794 .4837799 .049987794 .25144959 .049987794 .09249878 .16099549-.022460938 .32299806-.022460938 .36698915-.022460938 .4119873-.013473511 .44799806 .0015258789 .49798585 .021530152 .5169983 .042526246 .5349884 .06251526 .5439911 .037521364 .56999209 .0005340576 .5799866 .0005340576 .58499148 .0005340576 .58699038 .0035247803 .58699038 .0045318605 .58898928 .0065307619 .598999 .044525148 .60398867 .06550598L.6230011 .14248657C.6269989 .15948487 .6319885 .1764679 .6359863 .19346619 .6469879 .2384491 .647995 .240448 .7049866 .24145508 .70999148 .24145508 .72099307 .2424469 .72099307 .26145936 .72099307 .26844789 .71598818 .27246095 .70799258 .27246095 .68499758 .27246095 .6259918 .26945497 .6029968 .26945497 .57199099 .26945497 .49398805 .27246095 .46299745 .27246095 .45399476 .27246095 .44198609 .27246095 .44198609 .25245667 .44198609 .24145508 .44999696 .24145508 .47200013 .24145508 .47299195 .24145508 .5019989 .24145508 .5249939 .23945618 .5509949 .2364502 .55599978 .23345948 .55599978 .22045899 .55599978 .2114563 .54499819 .16647339 .5349884 .12948609 .5069885 .01953125 .3769989 .008529663 .34199525 .008529663 .24598694 .008529663 .14099121 .06550598 .14099121 .21846009 .14099121 .24945069 .15098572 .41467286 .2559967 .5448761 .30999757 .6129761 .40699769 .67407229 .5059967 .67407229 .60798647 .67407229 .6669922 .59695437 .6669922 .48077394 .6669922 .44070436 .6639862 .43971253 .6639862 .4296875 .6639862 .41967774 .6749878 .41967774 .67900088 .41967774 .69200137 .41967774 .69200137 .42167665 .69699099 .43971253L.7599945 .69506838Z"/>
<path id="font_1_3" d="M.7559967 .577652C.7659912 .61763 .7839966 .64860537 .8639984 .6516113 .86898806 .6516113 .8809967 .65260317 .8809967 .6716156 .8809967 .6726074 .8809967 .6826172 .8679962 .6826172 .83499148 .6826172 .7999878 .6796112 .7669983 .6796112 .73298647 .6796112 .69799807 .6826172 .6649933 .6826172 .6589966 .6826172 .6469879 .6826172 .6469879 .6626129 .6469879 .6516113 .6569977 .6516113 .6649933 .6516113 .7220001 .65060427 .73298647 .6296234 .73298647 .6076355 .73298647 .6046295 .73098757 .5896454 .7299957 .5866394L.6179962 .141922 .39698792 .66360476C.3889923 .6816101 .3880005 .6826172 .36499024 .6826172H.23098755C.21099854 .6826172 .20199585 .6826172 .20199585 .6626129 .20199585 .6516113 .21099854 .6516113 .22999573 .6516113 .23498535 .6516113 .2979889 .6516113 .2979889 .64260867L.1639862 .10594177C.1539917 .065963748 .13699341 .033996583 .055999757 .0309906 .049987794 .0309906 .038986207 .02999878 .038986207 .010986328 .038986207 .0039978029 .04399109 0 .051986696 0 .083999637 0 .11898804 .0029907227 .1519928 .0029907227 .18598938 .0029907227 .22200012 0 .25498963 0 .2599945 0 .272995 0 .272995 .019989014 .272995 .02999878 .2639923 .0309906 .25299073 .0309906 .19499207 .032989503 .18699646 .054977418 .18699646 .07496643 .18699646 .081954959 .18798828 .08695984 .19099427 .09794617L.32299806 .6256256C.32699586 .6196289 .32699586 .61763 .33198548 .6076355L.58099368 .018997193C.58799746 .0019989014 .59098818 0 .59999087 0 .61099246 0 .61099246 .0029907227 .6159973 .020996094L.7559967 .577652Z"/>
<path id="font_4_3" d="M.68699648 .32714845C.70199587 .32714845 .72099307 .32714845 .72099307 .34713746 .72099307 .36714173 .70199587 .36714173 .6879883 .36714173H.08898926C.07499695 .36714173 .055999757 .36714173 .055999757 .34713746 .055999757 .32714845 .07499695 .32714845 .08999634 .32714845H.68699648M.6879883 .13284302C.70199587 .13284302 .72099307 .13284302 .72099307 .15284729 .72099307 .17285156 .70199587 .17285156 .68699648 .17285156H.08999634C.07499695 .17285156 .055999757 .17285156 .055999757 .15284729 .055999757 .13284302 .07499695 .13284302 .08898926 .13284302H.6879883Z"/>
<path id="font_5_1" d="M.5479889 .23046875C.5649872 .23046875 .58299258 .23046875 .58299258 .25045777 .58299258 .27046205 .5649872 .27046205 .5479889 .27046205H.12399292C.13598633 .40419007 .25099183 .5 .3919983 .5H.5479889C.5649872 .5 .58299258 .5 .58299258 .519989 .58299258 .5399933 .5649872 .5399933 .5479889 .5399933H.3899994C.21899414 .5399933 .08299255 .4101715 .08299255 .25045777 .08299255 .09017944 .21899414-.040008546 .3899994-.040008546H.5479889C.5649872-.040008546 .58299258-.040008546 .58299258-.020004273 .58299258 0 .5649872 0 .5479889 0H.3919983C.25099183 0 .13598633 .096191409 .12399292 .23046875H.5479889Z"/>
<path id="font_5_2" d="M.27398683 .5C.4149933 .5 .5299988 .40419007 .5419922 .27046205H.117996219C.100997928 .27046205 .08299255 .27046205 .08299255 .25045777 .08299255 .23046875 .100997928 .23046875 .117996219 .23046875H.5419922C.5299988 .096191409 .4149933 0 .27398683 0H.117996219C.100997928 0 .08299255 0 .08299255-.020004273 .08299255-.040008546 .100997928-.040008546 .117996219-.040008546H.27598573C.44699098-.040008546 .58299258 .09017944 .58299258 .25045777 .58299258 .4101715 .44699098 .5399933 .27598573 .5399933H.117996219C.100997928 .5399933 .08299255 .5399933 .08299255 .519989 .08299255 .5 .100997928 .5 .117996219 .5H.27398683Z"/>
<path id="font_6_1" d="M.49198915 .68133547C.49198915 .69433596 .47999574 .69433596 .47499085 .69433596 .45999146 .69433596 .45899964 .68933108 .45498658 .67233279L.397995 .44335938C.22099304 .4353485 .069992069 .30833436 .069992069 .17430115 .069992069 .061279298 .17298889-.006729126 .28399659-.010726929 .27598573-.041793825 .2689972-.0738678 .26098634-.10493469 .24899292-.15203858 .23999024-.18910218 .23999024-.19210816 .23999024-.20410156 .25299073-.20410156 .2559967-.20410156 .2709961-.20410156 .27198792-.20111084 .2769928-.18009949L.31900025-.01171875C.48999024-.0047302248 .6469879 .121292117 .6469879 .25732423 .6469879 .3623352 .5549927 .4373474 .43299867 .4423523L.49198915 .68133547M.29100038 .01727295C.21398926 .021270752 .14299011 .0632782 .14299011 .15730286 .14299011 .25732423 .21899414 .39834596 .3899994 .41435243L.29100038 .01727295M.4249878 .41435243C.5019989 .41134645 .57398989 .369339 .57398989 .2743225 .57398989 .16529846 .48799134 .031280519 .32598878 .01727295L.4249878 .41435243Z"/>
<path id="font_7_1" d="M.6299896 .3643341C.6349945 .38233949 .6349945 .38435365 .6349945 .38734437 .6349945 .40437318 .621994 .42237855 .59799197 .42237855 .5779877 .42237855 .55599978 .40837098 .5479889 .38334657 .5149994 .42736817 .47200013 .4423828 .42799378 .4423828 .29100038 .4423828 .1499939 .31227113 .1499939 .17112732 .1499939 .06602478 .22999573 0 .32499696 0 .3889923 0 .44299317 .034988405 .46598817 .054016115 .46398927 .044006349 .44599916-.024032593 .44198609-.041046144 .43299867-.07707214 .42599488-.10707092 .37998963-.1390686 .33299256-.17108155 .2889862-.17108155 .2599945-.17108155 .2519989-.17108155 .1789856-.17007447 .1789856-.1640625L.18299866-.16107178C.20098877-.14506531 .20599365-.12307739 .20599365-.11306763 .20599365-.096069339 .19400025-.07206726 .16099549-.07206726 .1289978-.07206726 .09899902-.10006714 .09899902-.13807678 .09899902-.20507813 .20098877-.20507813 .26098634-.20507813 .397995-.20507813 .5-.15907288 .5239868-.062057496L.6299896 .3643341M.48799134 .1421051C.48399354 .12608338 .48298646 .12208557 .46398927 .10206604 .4269867 .0650177 .3809967 .033996583 .32899476 .033996583 .2899933 .033996583 .23999024 .055007936 .23999024 .13409424 .23999024 .17314148 .2579956 .26823426 .29599 .32629396 .32299806 .3703308 .375 .40837098 .42799378 .40837098 .5109863 .40837098 .5319977 .33029176 .5319977 .32128907 .5319977 .31929017 .5309906 .31227113 .5289917 .3062744L.48799134 .1421051Z"/>
<path id="font_8_2" d="M.58898928 .19296265H.5469971C.5439911 .17396546 .5339966 .11198425 .5179901 .101989749 .5099945 .09599304 .42599488 .09599304 .41099549 .09599304H.21499634C.2809906 .14497376 .35499574 .20095825 .4149933 .24093628 .5049896 .30291749 .58898928 .36090089 .58898928 .46687318 .58898928 .59495547 .46798707 .6660156 .32499696 .6660156 .18998719 .6660156 .09098816 .58795168 .09098816 .48986817 .09098816 .4378662 .1349945 .42886354 .14898682 .42886354 .17599488 .42886354 .20799256 .4468689 .20799256 .48786927 .20799256 .52386477 .18199158 .543869 .15098572 .546875 .1789856 .59194949 .23699951 .6220093 .3039856 .6220093 .40098573 .6220093 .48199464 .5639038 .48199464 .4658661 .48199464 .3818817 .42399598 .31791688 .34700013 .2529297L.102996829 .04598999C.09298706 .036987306 .09199524 .036987306 .09098816 .02999878V0H.55599978L.58898928 .19296265Z"/>
<path id="font_8_1" d="M.397995 .63591006C.397995 .6660156 .394989 .6660156 .3619995 .6660156 .29100038 .6016083 .17999268 .6016083 .1599884 .6016083H.14299011V.5576172H.1599884C.18299866 .5576172 .24798584 .5606079 .30599977 .58561709V.08596802C.30599977 .054977418 .30599977 .04399109 .19999695 .04399109H.1499939V0C.20498657 .0039978029 .2939911 .0039978029 .35198976 .0039978029 .4099884 .0039978029 .49899293 .0039978029 .55400088 0V.04399109H.5039978C.397995 .04399109 .397995 .054977418 .397995 .08596802V.63591006Z"/>
<path id="font_6_2" d="M.5439911 .6673279C.5469971 .6773224 .5469971 .68133547 .5469971 .6823273 .5469971 .69433596 .5339966 .69433596 .5309906 .69433596 .5159912 .69433596 .5159912 .6903229 .5109863 .67233279L.34799195 .020233155C.2659912 .030227662 .22200012 .06524658 .22200012 .13227844 .22200012 .14727783 .22200012 .17529297 .27198792 .29934693 .27999879 .32136537 .2869873 .33836366 .2869873 .3553772 .2869873 .4073944 .24299622 .44140626 .19198609 .44140626 .09199524 .44140626 .04699707 .3043518 .04699707 .28834535 .04699707 .27534486 .06098938 .27534486 .06399536 .27534486 .07798767 .27534486 .07899475 .28033448 .08198547 .29135133 .10598755 .37338258 .1499939 .4133911 .18899536 .4133911 .20599365 .4133911 .21398926 .40238954 .21398926 .37838746 .21398926 .3553772 .20599365 .33636476 .19499207 .3063507 .14498902 .18029785 .14498902 .1572876 .14498902 .13928223 .14498902 .024230957 .2659912-.003768921 .34098817-.0077667238 .33399964-.033813478 .29599-.18710327 .29599-.19111634 .29599-.20410156 .30799867-.20410156 .31199647-.20410156 .32598878-.20410156 .32798768-.19911194 .33198548-.18310547L.375-.009765625C.4139862-.009765625 .5059967-.009765625 .61099246 .09526062 .6380005 .12327576 .6649933 .15829468 .68299868 .20230103 .69699099 .23532105 .71798709 .3173523 .71798709 .3633728 .71798709 .44140626 .67099 .44239808 .66799929 .44239808 .6419983 .44239808 .6139984 .41540528 .6139984 .38938905 .6139984 .3723755 .6239929 .36437989 .6279907 .3613739 .6439972 .34736634 .66799929 .32235719 .66799929 .27833558 .66799929 .19430542 .5529938 .018234253 .38198854 .018234253L.5439911 .6673279Z"/>
<path id="font_7_2" d="M.36799623 .6563721C.37199403 .67037966 .37199403 .67237856 .37199403 .67736819 .37199403 .6943817 .35699464 .6943817 .34098817 .69337466L.21798706 .68437197C.20098877 .6833801 .19898987 .68237307 .19400025 .67837527 .18998719 .67337039 .18699646 .66137698 .18699646 .65538027 .18699646 .63838198 .20298767 .63838198 .21699524 .63838198 .21798706 .63838198 .23599243 .63838198 .25099183 .63638308 .269989 .6343689 .2709961 .6313782 .2709961 .62338259 .2709961 .6203766 .2709961 .6183777 .2659912 .6003723L.12799073 .04826355C.12399292 .0332489 .12399292 .03125 .12399292 .025253296 .12399292 .002243042 .14199829-.0107421879 .1619873-.0107421879 .18199158-.0107421879 .20399475 .004257202 .20999146 .028259278 .21299744 .038253786 .21699524 .052261354 .23199463 .11628723L.25 .18530274C.2649994 .24533081 .2649994 .24732971 .29299928 .29034425 .33399964 .35235597 .3929901 .40837098 .47200013 .40837098 .522995 .40837098 .5419922 .379364 .5419922 .3363495 .5419922 .28033448 .49899293 .17329407 .4850006 .1382904 .46998597 .10227966 .46699525 .0942688 .46699525 .07727051 .46699525 .025253296 .5169983-.0107421879 .57598879-.0107421879 .6819916-.0107421879 .7369995 .119277957 .7369995 .14428711 .7369995 .15829468 .7200012 .15829468 .71598818 .15829468 .69898989 .15829468 .69799807 .15429688 .69200137 .13528443 .6749878 .08027649 .6299896 .023254395 .5799866 .023254395 .5569916 .023254395 .5499878 .039260866 .5499878 .061264039 .5499878 .08126831 .56199648 .11027527 .57099917 .1342926 .58200076 .16130066 .6259918 .2703247 .6259918 .323349 .6259918 .39237977 .57899478 .4423828 .47698976 .4423828 .37799073 .4423828 .31999208 .379364 .2899933 .34635926L.36799623 .6563721Z"/>
<path id="font_9_1" d="M.8799896 .2223053C.8959961 .2223053 .9229889 .2223053 .9229889 .25030519 .9229889 .2783203 .8959961 .2783203 .8799896 .2783203H.20298767C.18699646 .2783203 .1599884 .2783203 .1599884 .25030519 .1599884 .2223053 .18699646 .2223053 .20298767 .2223053H.8799896Z"/>
</defs>
<use data-text="g" xlink:href="#font_1_4" transform="matrix(9.962799,0,0,-9.963197,17.66307,24.636818)"/>
<use data-text="1" xlink:href="#font_2_1" transform="matrix(6.97394,0,0,-6.9742186,22.415162,26.130908)"/>
<use data-text="&#x03d5;" xlink:href="#font_1_1" transform="matrix(9.962799,0,0,-9.963197,165.46004,24.636818)"/>
<use data-text="&#x2212;" xlink:href="#font_3_1" transform="matrix(6.97394,0,0,-6.9742186,171.39617,20.374564)"/>
<use data-text="1" xlink:href="#font_2_1" transform="matrix(6.97394,0,0,-6.9742186,177.62328,20.374564)"/>
<use data-text="1" xlink:href="#font_2_1" transform="matrix(6.97394,0,0,-6.9742186,171.39617,27.292979)"/>
<use data-text="(" xlink:href="#font_4_1" transform="matrix(9.962799,0,0,-9.963197,182.09239,24.636818)"/>
<use data-text="h" xlink:href="#font_1_5" transform="matrix(9.962799,0,0,-9.963197,185.96749,24.636818)"/>
<use data-text="n" xlink:href="#font_1_6" transform="matrix(9.962799,0,0,-9.963197,191.70604,24.636818)"/>
<use data-text="h" xlink:href="#font_1_5" transform="matrix(9.962799,0,0,-9.963197,197.68373,24.636818)"/>
<use data-text="&#x2212;" xlink:href="#font_3_1" transform="matrix(6.97394,0,0,-6.9742186,203.42781,21.020604)"/>
<use data-text="1" xlink:href="#font_2_1" transform="matrix(6.97394,0,0,-6.9742186,209.65395,21.021603)"/>
<use data-text=")" xlink:href="#font_4_2" transform="matrix(9.962799,0,0,-9.963197,214.12404,24.636818)"/>
<use data-text="G" xlink:href="#font_1_2" transform="matrix(9.962799,0,0,-9.963197,75.85823,39.408708)"/>
<use data-text="1" xlink:href="#font_2_1" transform="matrix(6.97394,0,0,-6.9742186,83.69139,40.903799)"/>
<use data-text="G" xlink:href="#font_1_2" transform="matrix(9.962799,0,0,-9.963197,120.659168,39.408708)"/>
<use data-text="1" xlink:href="#font_2_1" transform="matrix(6.97394,0,0,-6.9742186,128.49233,40.903799)"/>
<use data-text="N" xlink:href="#font_1_3" transform="matrix(9.962799,0,0,-9.963197,77.464267,82.90932)"/>
<use data-text="N" xlink:href="#font_1_3" transform="matrix(9.962799,0,0,-9.963197,122.2652,82.90932)"/>
<use data-text="n" xlink:href="#font_1_6" transform="matrix(9.962799,0,0,-9.963197,1.1887512,96.32612)"/>
<use data-text="=" xlink:href="#font_4_3" transform="matrix(9.962799,0,0,-9.963197,9.935928,96.32612)"/>
<use data-text="&#x03d5;" xlink:href="#font_1_1" transform="matrix(9.962799,0,0,-9.963197,20.452134,96.32612)"/>
<use data-text="(" xlink:href="#font_4_1" transform="matrix(9.962799,0,0,-9.963197,26.38826,96.32612)"/>
<use data-text="g" xlink:href="#font_1_4" transform="matrix(9.962799,0,0,-9.963197,30.263337,96.32612)"/>
<use data-text="1" xlink:href="#font_2_1" transform="matrix(6.97394,0,0,-6.9742186,35.014436,97.821208)"/>
<use data-text=")" xlink:href="#font_4_2" transform="matrix(9.962799,0,0,-9.963197,39.484514,96.32612)"/>
<use data-text="h" xlink:href="#font_1_5" transform="matrix(9.962799,0,0,-9.963197,177.65129,96.32612)"/>
<use data-text="n" xlink:href="#font_1_6" transform="matrix(9.962799,0,0,-9.963197,183.38988,96.32612)"/>
<use data-text="h" xlink:href="#font_1_5" transform="matrix(9.962799,0,0,-9.963197,189.36757,96.32612)"/>
<use data-text="&#x2212;" xlink:href="#font_3_1" transform="matrix(6.97394,0,0,-6.9742186,195.11165,92.7109)"/>
<use data-text="1" xlink:href="#font_2_1" transform="matrix(6.97394,0,0,-6.9742186,201.33876,92.7109)"/>
<path transform="matrix(1.00002,0,0,-1.00006,109.594928,57.34778)" stroke-width=".39848" stroke-linecap="butt" stroke-miterlimit="10" stroke-linejoin="miter" fill="none" stroke="#000000" d="M-90.43419 26.64375C-97.71289 6.87332-97.76602-7.54993-90.66725-27.27983"/>
<path transform="matrix(.34547694,-.9384463,-.9384088,-.34549073,19.193314,30.608944)" stroke-width=".39848" stroke-linecap="round" stroke-miterlimit="10" stroke-linejoin="miter" fill="none" stroke="#000000" d="M0 1.63379V-1.63379"/>
<path transform="matrix(.33853678,.94097647,.94093886,-.3385503,18.993302,84.81672)" stroke-width=".39848" stroke-linecap="round" stroke-linejoin="round" fill="none" stroke="#000000" d="M-2.07213 2.39091C-1.69356 .95633-.84995 .27893 0 0-.84995-.27893-1.69356-.95633-2.07213-2.39091"/>
<path transform="matrix(1.00002,0,0,-1.00006,109.594928,57.34778)" stroke-width=".39848" stroke-linecap="butt" stroke-miterlimit="10" stroke-linejoin="miter" fill="none" stroke="#000000" d="M-77.94006 38.63086C-30.41743 58.74 4.7436 60.54628 53.97862 45.4327"/>
<path transform="matrix(-.9209284,.38970337,.3896878,.9209652,31.561554,18.753403)" stroke-width=".39848" stroke-linecap="round" stroke-miterlimit="10" stroke-linejoin="miter" fill="none" stroke="#000000" d="M0 1.63379V-1.63379"/>
<path transform="matrix(.95596918,.29344759,.29343588,-.95600739,163.7651,11.97081)" stroke-width=".39848" stroke-linecap="round" stroke-linejoin="round" fill="none" stroke="#000000" d="M-2.07213 2.39091C-1.69356 .95633-.84995 .27893 0 0-.84995-.27893-1.69356-.95633-2.07213-2.39091"/>
<use data-text="&#x2208;" xlink:href="#font_5_1" transform="matrix(9.671387,2.3915659,2.3914705,-9.671774,47.5502,30.960652)"/>
<use data-text="&#x220b;" xlink:href="#font_5_2" transform="matrix(9.713928,-2.2108336,-2.210745,-9.714316,146.52738,34.986577)"/>
<path transform="matrix(1.00002,0,0,-1.00006,109.594928,57.34778)" stroke-width=".39848" stroke-linecap="butt" stroke-miterlimit="10" stroke-linejoin="miter" fill="none" stroke="#000000" d="M-16.93988 20.42943H6.1737"/>
<path transform="matrix(1.00002,0,0,-1.00006,115.96801,36.91712)" stroke-width=".39848" stroke-linecap="round" stroke-linejoin="round" fill="none" stroke="#000000" d="M-2.07213 2.39091C-1.69356 .95633-.84995 .27893 0 0-.84995-.27893-1.69356-.95633-2.07213-2.39091"/>
<use data-text="&#x03d5;" xlink:href="#font_6_1" transform="matrix(6.97394,0,0,-6.9742186,98.0777,32.08026)"/>
<use data-text="g" xlink:href="#font_7_1" transform="matrix(4.9813997,0,0,-4.9815986,102.86879,33.077325)"/>
<use data-text="2" xlink:href="#font_8_2" transform="matrix(4.9813997,0,0,-4.9815986,106.357868,34.57141)"/>
<path transform="matrix(1.00002,0,0,-1.00006,109.594928,57.34778)" stroke-width=".39848" stroke-linecap="butt" stroke-miterlimit="10" stroke-linejoin="miter" fill="none" stroke="#000000" d="M-27.5844 12.59523V-14.50356"/>
<path transform="matrix(0,1.00006,1.00002,0,82.00997,72.05146)" stroke-width=".39848" stroke-linecap="round" stroke-linejoin="round" fill="none" stroke="#000000" d="M-2.07213 2.39091C-1.69356 .95633-.84995 .27893 0 0-.84995-.27893-1.69356-.95633-2.07213-2.39091"/>
<use data-text="&#x03d5;" xlink:href="#font_6_1" transform="matrix(6.97394,0,0,-6.9742186,70.98515,60.244955)"/>
<use data-text="1" xlink:href="#font_8_1" transform="matrix(4.9813997,0,0,-4.9815986,75.776248,61.242013)"/>
<path transform="matrix(1.00002,0,0,-1.00006,109.594928,57.34778)" stroke-width=".39848" stroke-linecap="butt" stroke-miterlimit="10" stroke-linejoin="miter" fill="none" stroke="#000000" d="M-18.54568-23.06834H7.77953"/>
<path transform="matrix(1.00002,0,0,-1.00006,117.573848,80.4175)" stroke-width=".39848" stroke-linecap="round" stroke-linejoin="round" fill="none" stroke="#000000" d="M-2.07213 2.39091C-1.69356 .95633-.84995 .27893 0 0-.84995-.27893-1.69356-.95633-2.07213-2.39091"/>
<use data-text="&#x03c8;" xlink:href="#font_6_2" transform="matrix(6.97394,0,0,-6.9742186,99.46472,76.714939)"/>
<use data-text="h" xlink:href="#font_7_2" transform="matrix(4.9813997,0,0,-4.9815986,104.73683,77.772998)"/>
<path transform="matrix(1.00002,0,0,-1.00006,109.594928,57.34778)" stroke-width=".39848" stroke-linecap="butt" stroke-miterlimit="10" stroke-linejoin="miter" fill="none" stroke="#000000" d="M17.2167-14.90204V12.19675"/>
<path transform="matrix(0,-1.00006,-1.00002,-0,126.811969,44.951036)" stroke-width=".39848" stroke-linecap="round" stroke-linejoin="round" fill="none" stroke="#000000" d="M-2.07213 2.39091C-1.69356 .95633-.84995 .27893 0 0-.84995-.27893-1.69356-.95633-2.07213-2.39091"/>
<use data-text="&#x03d5;" xlink:href="#font_6_1" transform="matrix(6.97394,0,0,-6.9742186,129.15833,60.69698)"/>
<use data-text="&#x2212;" xlink:href="#font_9_1" transform="matrix(4.9813997,0,0,-4.9815986,133.9494,57.464788)"/>
<use data-text="1" xlink:href="#font_8_1" transform="matrix(4.9813997,0,0,-4.9815986,139.34552,57.464788)"/>
<use data-text="1" xlink:href="#font_8_1" transform="matrix(4.9813997,0,0,-4.9815986,133.9494,62.86011)"/>
<path transform="matrix(1.00002,0,0,-1.00006,109.594928,57.34778)" stroke-width=".39848" stroke-linecap="butt" stroke-miterlimit="10" stroke-linejoin="miter" fill="none" stroke="#000000" d="M-62.78685-45.41249C-15.73248-61.50864 18.0547-60.8487 64.35378-42.96863"/>
<path transform="matrix(-.94616898,-.3236594,-.32364647,.94620677,46.712568,102.73076)" stroke-width=".39848" stroke-linecap="round" stroke-miterlimit="10" stroke-linejoin="miter" fill="none" stroke="#000000" d="M0 1.63379V-1.63379"/>
<path transform="matrix(.93284866,-.3602516,-.3602372,-.9328859,174.13587,100.24723)" stroke-width=".39848" stroke-linecap="round" stroke-linejoin="round" fill="none" stroke="#000000" d="M-2.07213 2.39091C-1.69356 .95633-.84995 .27893 0 0-.84995-.27893-1.69356-.95633-2.07213-2.39091"/>
<use data-text="&#x2208;" xlink:href="#font_5_1" transform="matrix(9.719906,-2.1847299,-2.1846429,-9.720294,57.717515,88.42903)"/>
<use data-text="&#x220b;" xlink:href="#font_5_2" transform="matrix(9.756071,2.0169497,2.016869,-9.756461,150.74951,87.90773)"/>
<path transform="matrix(1.00002,0,0,-1.00006,109.594928,57.34778)" stroke-width=".39848" stroke-linecap="butt" stroke-miterlimit="10" stroke-linejoin="miter" fill="none" stroke="#000000" d="M85.68182-26.736C92.64372-7.41524 92.59814 6.6487 85.54637 25.83072"/>
<path transform="matrix(-.3389768,.9408064,.94076886,.33899034,195.24472,84.17909)" stroke-width=".39848" stroke-linecap="round" stroke-miterlimit="10" stroke-linejoin="miter" fill="none" stroke="#000000" d="M0 1.63379V-1.63379"/>
<path transform="matrix(-.3450269,-.93860629,-.9385688,.34504069,195.07428,31.328518)" stroke-width=".39848" stroke-linecap="round" stroke-linejoin="round" fill="none" stroke="#000000" d="M-2.07213 2.39091C-1.69356 .95633-.84995 .27893 0 0-.84995-.27893-1.69356-.95633-2.07213-2.39091"/>
</svg>
