<svg xmlns="http://www.w3.org/2000/svg" xmlns:xlink="http://www.w3.org/1999/xlink" xmlns:inkscape="http://www.inkscape.org/namespaces/inkscape" version="1.1" width="294" height="67" viewBox="0 0 294 67">
<defs>
<path id="font_1_1" d="M.59599307 .6485596C.6049957 .66156008 .6049957 .66355898 .6049957 .66656497 .6049957 .6845703 .58999636 .6845703 .57199099 .6845703H.11399841C.08198547 .6845703 .08198547 .68156436 .07899475 .65556338L.06399536 .5206604 .06199646 .5076599C.06199646 .4936676 .07299805 .48867799 .07998657 .48867799 .08898926 .48867799 .09498596 .4956665 .09700012 .5036621 .100997928 .5276489 .10998535 .57162478 .17098999 .6095886 .22799683 .64656069 .2979889 .64956668 .33198548 .64956668H.41299439L.036987306 .035995485C.027999878 .022994996 .027999878 .020996094 .027999878 .017990113 .027999878 0 .04399109 0 .06199646 0H.57499697C.6049957 0 .6049957 .0019989014 .60899356 .027999878L.6359863 .22485352C.6359863 .2358551 .6269989 .24284363 .61898806 .24284363 .60398867 .24284363 .60198977 .23284912 .598999 .21287537 .58200076 .13092041 .5039978 .034988405 .3619995 .034988405H.21998596L.59599307 .6485596M.11299133 .64956668H.1659851V.6485596C.13899231 .63357546 .11999512 .6155853 .10798645 .604599L.11299133 .64956668M.45399476 .64956668H.55599978L.1789856 .034988405H.07699585L.45399476 .64956668M.5069885 .035995485C.5349884 .051986696 .5609894 .07395935 .58399966 .10194397 .58200076 .081954959 .5799866 .07096863 .57499697 .034988405H.5069885V.035995485Z"/>
<path id="font_2_1" d="M.25498963-.25V-.21000672H.1579895V.70999148H.25498963V.75H.117996219V-.25H.25498963Z"/>
<path id="font_3_1" d="M.28399659 .6252594C.28399659 .6452637 .269989 .6612549 .24699402 .6612549 .21998596 .6612549 .19299317 .6352539 .19299317 .6082611 .19299317 .5892639 .20698548 .5722656 .23098755 .5722656 .2539978 .5722656 .28399659 .5952606 .28399659 .6252594M.20799256 .24932862C.21998596 .27833558 .21998596 .28033448 .22999573 .30734254 .23799134 .3273468 .24299622 .34135438 .24299622 .36035157 .24299622 .405365 .21099854 .4423828 .16099549 .4423828 .066986087 .4423828 .0289917 .29733277 .0289917 .28833009 .0289917 .27833558 .038986207 .27833558 .040985109 .27833558 .050994874 .27833558 .051986696 .28033448 .056991579 .29634095 .083999637 .3903656 .12399292 .42037965 .1579895 .42037965 .1659851 .42037965 .18299866 .42037965 .18299866 .3883667 .18299866 .36735536 .17599488 .346344 .17199707 .3363495 .1639862 .31033326 .11898804 .19430542 .102996829 .1512909 .09298706 .12528992 .07998657 .0922699 .07998657 .0712738 .07998657 .024261475 .11399841-.0107421879 .1619873-.0107421879 .2559967-.0107421879 .29299928 .1342926 .29299928 .14329529 .29299928 .1532898 .28399659 .1532898 .2809906 .1532898 .2709961 .1532898 .2709961 .15029907 .2659912 .13528443 .24798584 .072265628 .21499634 .011245728 .1639862 .011245728 .14698792 .011245728 .13999939 .021255494 .13999939 .044265748 .13999939 .0692749 .1459961 .08326721 .16899109 .14428711L.20799256 .24932862Z"/>
<path id="font_2_2" d="M.15899658 .75H.021987915V.70999148H.11898804V-.21000672H.021987915V-.25H.15899658V.75Z"/>
<path id="font_4_121" d="M.45999146 .31976319C.45999146 .39982606 .45498658 .47988893 .41999818 .5539398 .37399293 .65000918 .2919922 .6660156 .25 .6660156 .18998719 .6660156 .116989139 .64001467 .07598877 .54693606 .04399109 .47789 .038986207 .39982606 .038986207 .31976319 .038986207 .24472046 .042999269 .15464783 .083999637 .07859802 .1269989-.0024719239 .19999695-.022460938 .24899292-.022460938 .30299378-.022460938 .3789978-.0014648438 .4229889 .09359741 .45498658 .16265869 .45999146 .2407074 .45999146 .31976319M.3769989 .3317871C.3769989 .25672914 .3769989 .18867493 .3659973 .12461853 .35099793 .029556275 .2939911-.00047302247 .24899292-.00047302247 .20999146-.00047302247 .15098572 .024551392 .1329956 .12062073 .12199402 .18066406 .12199402 .2727356 .12199402 .3317871 .12199402 .39582826 .12199402 .46188355 .12998963 .5159149 .14898682 .63500979 .22399903 .64401248 .24899292 .64401248 .28199769 .64401248 .34799195 .6259918 .36698915 .52693179 .3769989 .47088624 .3769989 .39482118 .3769989 .3317871Z"/>
<path id="font_4_107" d="M.44898988 .17396546H.42399598C.4189911 .14398194 .4119873 .099990848 .4019928 .084991458 .394989 .07699585 .32899476 .07699585 .30699159 .07699585H.1269989L.23298645 .17996216C.3889923 .31803895 .44898988 .37210084 .44898988 .47216798 .44898988 .5860901 .35899354 .6660156 .23699951 .6660156 .12399292 .6660156 .049987794 .57411196 .049987794 .48516847 .049987794 .4291687 .099990848 .4291687 .102996829 .4291687 .11999512 .4291687 .15499878 .44117738 .15499878 .48217774 .15499878 .5081787 .13699341 .5341797 .101989749 .5341797 .09399414 .5341797 .09199524 .5341797 .08898926 .5331726 .11199951 .59806826 .1659851 .63500979 .22399903 .63500979 .31498719 .63500979 .35798646 .5541382 .35798646 .47216798 .35798646 .39196778 .30799867 .31297303 .25299073 .25097657L.06098938 .036987306C.049987794 .025985718 .049987794 .023986817 .049987794 0H.42099L.44898988 .17396546Z"/>
<path id="font_4_106" d="M.45700074 .17037964C.45700074 .252594 .3939972 .33088685 .2899933 .35191346 .37199403 .37893678 .42999269 .4490509 .42999269 .52809146 .42999269 .6100464 .34199525 .6660156 .24598694 .6660156 .14498902 .6660156 .068984989 .60606387 .068984989 .53009036 .068984989 .49710084 .09098816 .47808839 .11999512 .47808839 .15098572 .47808839 .17098999 .50009158 .17098999 .5290985 .17098999 .57910159 .12399292 .57910159 .10899353 .57910159 .13999939 .62802127 .20599365 .64100649 .24198914 .64100649 .2829895 .64100649 .33799745 .6190338 .33799745 .5290985 .33799745 .51708987 .33599855 .45906068 .30999757 .4149933 .27999879 .36691285 .24598694 .36390687 .22099304 .36291505 .21299744 .36190797 .18899536 .35990907 .18199158 .35990907 .17399597 .35890199 .16699219 .35791017 .16699219 .3479004 .16699219 .33691407 .17399597 .33691407 .19099427 .33691407H.23498535C.31698609 .33691407 .35398866 .2686615 .35398866 .17037964 .35398866 .034469606 .2849884 .0055389406 .24099732 .0055389406 .19799805 .0055389406 .12298584 .022491456 .08799744 .08137512 .12298584 .07637024 .1539917 .09837341 .1539917 .1363678 .1539917 .17237854 .1269989 .19238281 .09799194 .19238281 .07398987 .19238281 .041992189 .17837525 .041992189 .1343689 .041992189 .043441774 .1349945-.022460938 .24398804-.022460938 .3659973-.022460938 .45700074 .06838989 .45700074 .17037964Z"/>
<path id="font_4_56" d="M.44898988 .20091248C.44898988 .31991578 .36698915 .41992188 .25898744 .41992188 .21099854 .41992188 .16799927 .4039154 .13198853 .36891175V.5641022C.1519928 .55778506 .18499756 .55078127 .21699524 .55078127 .33999635 .55078127 .4099884 .6418457 .4099884 .65493777 .4099884 .6609802 .40699769 .6660156 .3999939 .6660156 .3999939 .66607668 .39698792 .66607668 .3919983 .66308596 .37199403 .65408328 .32299806 .63378909 .2559967 .63378909 .21598816 .63409426 .16999817 .641098 .12298584 .6621094 .114990238 .6651001 .11099243 .6651001 .11099243 .6651001 .100997928 .66508486 .100997928 .657074 .100997928 .64108279V.3447113C.100997928 .3266449 .100997928 .31861878 .114990238 .31861878 .12199402 .31861878 .12399292 .32164 .12799073 .32765199 .13899231 .34371949 .17599488 .3979187 .25698854 .3979187 .30899049 .3979187 .33399964 .3517456 .34199525 .3336792 .35798646 .2965393 .3600006 .2574005 .3600006 .20721436 .3600006 .17218018 .3600006 .112197879 .33599855 .07032776 .31199647 .031448366 .2749939 .0055389406 .22898865 .0055389406 .1559906 .0055389406 .09899902 .05836487 .08198547 .1171875 .084991458 .11685181 .08799744 .115859989 .09899902 .115859989 .13198853 .115859989 .14898682 .14085388 .14898682 .16485596 .14898682 .18885803 .13198853 .21386719 .09899902 .21386719 .084991458 .21386719 .049987794 .2068634 .049987794 .16085816 .049987794 .07432556 .11898804-.022460938 .23098755-.022460938 .34700013-.022460938 .44898988 .07331848 .44898988 .20019531V.20091248Z"/>
<path id="font_4_100" d="M.4850006 .6435547H.24198914C.11999512 .6435547 .117996219 .6566467 .11399841 .67578127H.08898926L.055999757 .46954347H.08099365C.083999637 .48554994 .09298706 .54855349 .10598755 .5605469 .11299133 .5665436 .19099427 .5665436 .20399475 .5665436H.41099549L.29899598 .40853883C.20899964 .2735443 .17599488 .13453675 .17599488 .03253174 .17599488 .022537232 .17599488-.022460938 .22200012-.022460938 .2679901-.022460938 .2679901 .022537232 .2679901 .03253174V.08354187C.2679901 .13853455 .2709961 .19354248 .2789917 .24754334 .2829895 .27053834 .29699708 .35653688 .34098817 .41854859L.47599793 .608551C.4850006 .62054446 .4850006 .62254336 .4850006 .6435547Z"/>
<path id="font_4_82" d="M.4189911 0V.0309906H.3869934C.29699708 .0309906 .2939911 .041992189 .2939911 .07902527V.64012148C.2939911 .6640167 .2939911 .6660156 .2709961 .6660156 .20899964 .60227969 .12098694 .60227969 .08898926 .60227969V.57128909C.10899353 .57128909 .16799927 .57128909 .21998596 .5972748V.07902527C.21998596 .042999269 .21699524 .0309906 .1269989 .0309906H.09498596V0C.12998963 .0029907227 .21699524 .0029907227 .25698854 .0029907227 .29699708 .0029907227 .38398744 .0029907227 .4189911 0Z"/>
</defs>
<path transform="matrix(1.00005,0,0,-1,43.153646,51.472997)" stroke-width="1.19553" stroke-linecap="butt" stroke-miterlimit="10" stroke-linejoin="miter" fill="none" stroke="#000000" d="M-22.67752 0H249.452"/>
<path transform="matrix(1.00005,0,0,-1,43.153646,51.472997)" stroke-width="1.19553" stroke-linecap="butt" stroke-miterlimit="10" stroke-linejoin="miter" fill="none" stroke="#000000" d="M-22.67752 45.35506H249.452"/>
<use data-text="Z" xlink:href="#font_1_1" transform="matrix(9.963098,0,0,-9.9626,10.313004,54.904996)"/>
<use data-text="Z" xlink:href="#font_1_1" transform="matrix(9.963098,0,0,-9.9626,1.3455582,8.608997)"/>
<use data-text="[" xlink:href="#font_2_1" transform="matrix(9.963098,0,0,-9.9626,7.9878885,8.608997)"/>
<use data-text="i" xlink:href="#font_3_1" transform="matrix(9.963098,0,0,-9.9626,10.756027,8.608997)"/>
<use data-text="]" xlink:href="#font_2_2" transform="matrix(9.963098,0,0,-9.9626,14.188198,8.608997)"/>
<path transform="matrix(1.00005,0,0,-1,43.153646,51.472997)" d="M1.70073 0C1.70073 .93929 .93929 1.70073 0 1.70073-.93929 1.70073-1.70073 .93929-1.70073 0-1.70073-.93929-.93929-1.70073 0-1.70073 .93929-1.70073 1.70073-.93929 1.70073 0ZM0 0"/>
<use data-text="0" xlink:href="#font_4_121" transform="matrix(9.963098,0,0,-9.9626,40.66252,64.61699)"/>
<path transform="matrix(1.00005,0,0,-1,43.153646,51.472997)" stroke-width=".3985" stroke-linecap="butt" stroke-dasharray=".3985,.99628" stroke-miterlimit="10" stroke-linejoin="miter" fill="none" stroke="#000000" d="M0 0V45.35506"/>
<path transform="matrix(1.00005,0,0,-1,43.153646,51.472997)" d="M47.05579 0C47.05579 .93929 46.29434 1.70073 45.35506 1.70073 44.41576 1.70073 43.65431 .93929 43.65431 0 43.65431-.93929 44.41576-1.70073 45.35506-1.70073 46.29434-1.70073 47.05579-.93929 47.05579 0ZM45.35506 0"/>
<use data-text="2" xlink:href="#font_4_107" transform="matrix(9.963098,0,0,-9.9626,86.01978,64.61699)"/>
<path transform="matrix(1.00005,0,0,-1,43.153646,51.472997)" stroke-width=".3985" stroke-linecap="butt" stroke-dasharray=".3985,.99628" stroke-miterlimit="10" stroke-linejoin="miter" fill="none" stroke="#000000" d="M45.35506 0V45.35506"/>
<path transform="matrix(1.00005,0,0,-1,43.153646,51.472997)" d="M92.41043 0C92.41043 .93929 91.649 1.70073 90.7097 1.70073 89.7704 1.70073 89.00896 .93929 89.00896 0 89.00896-.93929 89.7704-1.70073 90.7097-1.70073 91.649-1.70073 92.41043-.93929 92.41043 0ZM90.7097 0"/>
<use data-text="3" xlink:href="#font_4_106" transform="matrix(9.963098,0,0,-9.9626,131.37706,64.61699)"/>
<path transform="matrix(1.00005,0,0,-1,43.153646,51.472997)" stroke-width=".3985" stroke-linecap="butt" stroke-dasharray=".3985,.99628" stroke-miterlimit="10" stroke-linejoin="miter" fill="none" stroke="#000000" d="M90.7097 0V45.35506"/>
<path transform="matrix(1.00005,0,0,-1,43.153646,51.472997)" d="M137.76549 0C137.76549 .93929 137.00406 1.70073 136.06476 1.70073 135.12546 1.70073 134.36402 .93929 134.36402 0 134.36402-.93929 135.12546-1.70073 136.06476-1.70073 137.00406-1.70073 137.76549-.93929 137.76549 0ZM136.06476 0"/>
<use data-text="5" xlink:href="#font_4_56" transform="matrix(9.963098,0,0,-9.9626,176.73432,64.61699)"/>
<path transform="matrix(1.00005,0,0,-1,43.153646,51.472997)" stroke-width=".3985" stroke-linecap="butt" stroke-dasharray=".3985,.99628" stroke-miterlimit="10" stroke-linejoin="miter" fill="none" stroke="#000000" d="M136.06476 0V45.35506"/>
<path transform="matrix(1.00005,0,0,-1,43.153646,51.472997)" d="M183.12014 0C183.12014 .93929 182.3587 1.70073 181.4194 1.70073 180.4801 1.70073 179.71866 .93929 179.71866 0 179.71866-.93929 180.4801-1.70073 181.4194-1.70073 182.3587-1.70073 183.12014-.93929 183.12014 0ZM181.4194 0"/>
<use data-text="7" xlink:href="#font_4_100" transform="matrix(9.963098,0,0,-9.9626,222.09159,64.71599)"/>
<path transform="matrix(1.00005,0,0,-1,43.153646,51.472997)" stroke-width=".3985" stroke-linecap="butt" stroke-dasharray=".3985,.99628" stroke-miterlimit="10" stroke-linejoin="miter" fill="none" stroke="#000000" d="M181.4194 0V45.35506"/>
<path transform="matrix(1.00005,0,0,-1,43.153646,51.472997)" d="M228.4752 0C228.4752 .93929 227.71378 1.70073 226.77448 1.70073 225.83518 1.70073 225.07373 .93929 225.07373 0 225.07373-.93929 225.83518-1.70073 226.77448-1.70073 227.71378-1.70073 228.4752-.93929 228.4752 0ZM226.77448 0"/>
<use data-text="1" xlink:href="#font_4_82" transform="matrix(9.963098,0,0,-9.9626,264.95774,64.61699)"/>
<use data-text="1" xlink:href="#font_4_82" transform="matrix(9.963098,0,0,-9.9626,269.93928,64.61699)"/>
<path transform="matrix(1.00005,0,0,-1,43.153646,51.472997)" stroke-width=".3985" stroke-linecap="butt" stroke-dasharray=".3985,.99628" stroke-miterlimit="10" stroke-linejoin="miter" fill="none" stroke="#000000" d="M226.77448 0V45.35506"/>
<path transform="matrix(1.00005,0,0,-1,43.153646,51.472997)" d="M47.05579 45.35506C47.05579 46.29434 46.29434 47.05579 45.35506 47.05579 44.41576 47.05579 43.65431 46.29434 43.65431 45.35506 43.65431 44.41576 44.41576 43.65431 45.35506 43.65431 46.29434 43.65431 47.05579 44.41576 47.05579 45.35506ZM45.35506 45.35506"/>
<path transform="matrix(1.00005,0,0,-1,43.153646,51.472997)" stroke-width=".3985" stroke-linecap="butt" stroke-miterlimit="10" stroke-linejoin="miter" fill="none" stroke="#000000" d="M48.1899 45.35506C48.1899 46.9207 46.9207 48.1899 45.35506 48.1899 43.7894 48.1899 42.5202 46.9207 42.5202 45.35506 42.5202 43.7894 43.7894 42.5202 45.35506 42.5202 46.9207 42.5202 48.1899 43.7894 48.1899 45.35506ZM45.35506 45.35506"/>
<path transform="matrix(1.00005,0,0,-1,43.153646,51.472997)" d="M92.41043 45.35506C92.41043 46.29434 91.649 47.05579 90.7097 47.05579 89.7704 47.05579 89.00896 46.29434 89.00896 45.35506 89.00896 44.41576 89.7704 43.65431 90.7097 43.65431 91.649 43.65431 92.41043 44.41576 92.41043 45.35506ZM90.7097 45.35506"/>
<path transform="matrix(1.00005,0,0,-1,43.153646,51.472997)" d="M183.12014 45.35506C183.12014 46.29434 182.3587 47.05579 181.4194 47.05579 180.4801 47.05579 179.71866 46.29434 179.71866 45.35506 179.71866 44.41576 180.4801 43.65431 181.4194 43.65431 182.3587 43.65431 183.12014 44.41576 183.12014 45.35506ZM181.4194 45.35506"/>
<path transform="matrix(1.00005,0,0,-1,43.153646,51.472997)" d="M228.4752 45.35506C228.4752 46.29434 227.71378 47.05579 226.77448 47.05579 225.83518 47.05579 225.07373 46.29434 225.07373 45.35506 225.07373 44.41576 225.83518 43.65431 226.77448 43.65431 227.71378 43.65431 228.4752 44.41576 228.4752 45.35506ZM226.77448 45.35506"/>
<path transform="matrix(1.00005,0,0,-1,43.153646,51.472997)" d="M132.66329 45.35506C132.66329 46.29434 131.90184 47.05579 130.96254 47.05579 130.02324 47.05579 129.26181 46.29434 129.26181 45.35506 129.26181 44.41576 130.02324 43.65431 130.96254 43.65431 131.90184 43.65431 132.66329 44.41576 132.66329 45.35506ZM130.96254 45.35506"/>
<path transform="matrix(1.00005,0,0,-1,43.153646,51.472997)" d="M142.86772 45.35506C142.86772 46.29434 142.10628 47.05579 141.16698 47.05579 140.22768 47.05579 139.46625 46.29434 139.46625 45.35506 139.46625 44.41576 140.22768 43.65431 141.16698 43.65431 142.10628 43.65431 142.86772 44.41576 142.86772 45.35506ZM141.16698 45.35506"/>
</svg>
