<svg xmlns="http://www.w3.org/2000/svg" xmlns:xlink="http://www.w3.org/1999/xlink" xmlns:inkscape="http://www.inkscape.org/namespaces/inkscape" version="1.1" width="74" height="49" viewBox="0 0 74 49">
<defs>
<path id="font_1_1" d="M.7599945 .69506838C.7599945 .69807437 .7579956 .7050781 .7489929 .7050781 .74598696 .7050781 .7449951 .70407107 .73399356 .69306948L.6639862 .61598208C.6549988 .6300049 .60899356 .7050781 .49798585 .7050781 .2749939 .7050781 .049987794 .4837799 .049987794 .25144959 .049987794 .09249878 .16099549-.022460938 .32299806-.022460938 .36698915-.022460938 .4119873-.013473511 .44799806 .0015258789 .49798585 .021530152 .5169983 .042526246 .5349884 .06251526 .5439911 .037521364 .56999209 .0005340576 .5799866 .0005340576 .58499148 .0005340576 .58699038 .0035247803 .58699038 .0045318605 .58898928 .0065307619 .598999 .044525148 .60398867 .06550598L.6230011 .14248657C.6269989 .15948487 .6319885 .1764679 .6359863 .19346619 .6469879 .2384491 .647995 .240448 .7049866 .24145508 .70999148 .24145508 .72099307 .2424469 .72099307 .26145936 .72099307 .26844789 .71598818 .27246095 .70799258 .27246095 .68499758 .27246095 .6259918 .26945497 .6029968 .26945497 .57199099 .26945497 .49398805 .27246095 .46299745 .27246095 .45399476 .27246095 .44198609 .27246095 .44198609 .25245667 .44198609 .24145508 .44999696 .24145508 .47200013 .24145508 .47299195 .24145508 .5019989 .24145508 .5249939 .23945618 .5509949 .2364502 .55599978 .23345948 .55599978 .22045899 .55599978 .2114563 .54499819 .16647339 .5349884 .12948609 .5069885 .01953125 .3769989 .008529663 .34199525 .008529663 .24598694 .008529663 .14099121 .06550598 .14099121 .21846009 .14099121 .24945069 .15098572 .41467286 .2559967 .5448761 .30999757 .6129761 .40699769 .67407229 .5059967 .67407229 .60798647 .67407229 .6669922 .59695437 .6669922 .48077394 .6669922 .44070436 .6639862 .43971253 .6639862 .4296875 .6639862 .41967774 .6749878 .41967774 .67900088 .41967774 .69200137 .41967774 .69200137 .42167665 .69699099 .43971253L.7599945 .69506838Z"/>
<path id="font_2_1" d="M.33499146 .63612368C.33499146 .6630554 .33299256 .6640625 .30499269 .6640625 .24099732 .6014404 .1499939 .6004486 .10899353 .6004486V.5644531C.1329956 .5644531 .19898987 .5644531 .2539978 .592453V.08203125C.2539978 .04899597 .2539978 .035995485 .1539917 .035995485H.115997318V0C.13398743 .0009918213 .25698854 .0039978029 .2939911 .0039978029 .32499696 .0039978029 .45098878 .0009918213 .47299195 0V.035995485H.43499757C.33499146 .035995485 .33499146 .04899597 .33499146 .08203125V.63612368Z"/>
<path id="font_1_2" d="M.7559967 .577652C.7659912 .61763 .7839966 .64860537 .8639984 .6516113 .86898806 .6516113 .8809967 .65260317 .8809967 .6716156 .8809967 .6726074 .8809967 .6826172 .8679962 .6826172 .83499148 .6826172 .7999878 .6796112 .7669983 .6796112 .73298647 .6796112 .69799807 .6826172 .6649933 .6826172 .6589966 .6826172 .6469879 .6826172 .6469879 .6626129 .6469879 .6516113 .6569977 .6516113 .6649933 .6516113 .7220001 .65060427 .73298647 .6296234 .73298647 .6076355 .73298647 .6046295 .73098757 .5896454 .7299957 .5866394L.6179962 .141922 .39698792 .66360476C.3889923 .6816101 .3880005 .6826172 .36499024 .6826172H.23098755C.21099854 .6826172 .20199585 .6826172 .20199585 .6626129 .20199585 .6516113 .21099854 .6516113 .22999573 .6516113 .23498535 .6516113 .2979889 .6516113 .2979889 .64260867L.1639862 .10594177C.1539917 .065963748 .13699341 .033996583 .055999757 .0309906 .049987794 .0309906 .038986207 .02999878 .038986207 .010986328 .038986207 .0039978029 .04399109 0 .051986696 0 .083999637 0 .11898804 .0029907227 .1519928 .0029907227 .18598938 .0029907227 .22200012 0 .25498963 0 .2599945 0 .272995 0 .272995 .019989014 .272995 .02999878 .2639923 .0309906 .25299073 .0309906 .19499207 .032989503 .18699646 .054977418 .18699646 .07496643 .18699646 .081954959 .18798828 .08695984 .19099427 .09794617L.32299806 .6256256C.32699586 .6196289 .32699586 .61763 .33198548 .6076355L.58099368 .018997193C.58799746 .0019989014 .59098818 0 .59999087 0 .61099246 0 .61099246 .0029907227 .6159973 .020996094L.7559967 .577652Z"/>
<path id="font_3_1" d="M.49198915 .68133547C.49198915 .69433596 .47999574 .69433596 .47499085 .69433596 .45999146 .69433596 .45899964 .68933108 .45498658 .67233279L.397995 .44335938C.22099304 .4353485 .069992069 .30833436 .069992069 .17430115 .069992069 .061279298 .17298889-.006729126 .28399659-.010726929 .27598573-.041793825 .2689972-.0738678 .26098634-.10493469 .24899292-.15203858 .23999024-.18910218 .23999024-.19210816 .23999024-.20410156 .25299073-.20410156 .2559967-.20410156 .2709961-.20410156 .27198792-.20111084 .2769928-.18009949L.31900025-.01171875C.48999024-.0047302248 .6469879 .121292117 .6469879 .25732423 .6469879 .3623352 .5549927 .4373474 .43299867 .4423523L.49198915 .68133547M.29100038 .01727295C.21398926 .021270752 .14299011 .0632782 .14299011 .15730286 .14299011 .25732423 .21899414 .39834596 .3899994 .41435243L.29100038 .01727295M.4249878 .41435243C.5019989 .41134645 .57398989 .369339 .57398989 .2743225 .57398989 .16529846 .48799134 .031280519 .32598878 .01727295L.4249878 .41435243Z"/>
<path id="font_4_1" d="M.6299896 .3643341C.6349945 .38233949 .6349945 .38435365 .6349945 .38734437 .6349945 .40437318 .621994 .42237855 .59799197 .42237855 .5779877 .42237855 .55599978 .40837098 .5479889 .38334657 .5149994 .42736817 .47200013 .4423828 .42799378 .4423828 .29100038 .4423828 .1499939 .31227113 .1499939 .17112732 .1499939 .06602478 .22999573 0 .32499696 0 .3889923 0 .44299317 .034988405 .46598817 .054016115 .46398927 .044006349 .44599916-.024032593 .44198609-.041046144 .43299867-.07707214 .42599488-.10707092 .37998963-.1390686 .33299256-.17108155 .2889862-.17108155 .2599945-.17108155 .2519989-.17108155 .1789856-.17007447 .1789856-.1640625L.18299866-.16107178C.20098877-.14506531 .20599365-.12307739 .20599365-.11306763 .20599365-.096069339 .19400025-.07206726 .16099549-.07206726 .1289978-.07206726 .09899902-.10006714 .09899902-.13807678 .09899902-.20507813 .20098877-.20507813 .26098634-.20507813 .397995-.20507813 .5-.15907288 .5239868-.062057496L.6299896 .3643341M.48799134 .1421051C.48399354 .12608338 .48298646 .12208557 .46398927 .10206604 .4269867 .0650177 .3809967 .033996583 .32899476 .033996583 .2899933 .033996583 .23999024 .055007936 .23999024 .13409424 .23999024 .17314148 .2579956 .26823426 .29599 .32629396 .32299806 .3703308 .375 .40837098 .42799378 .40837098 .5109863 .40837098 .5319977 .33029176 .5319977 .32128907 .5319977 .31929017 .5309906 .31227113 .5289917 .3062744L.48799134 .1421051Z"/>
<path id="font_5_2" d="M.58898928 .19296265H.5469971C.5439911 .17396546 .5339966 .11198425 .5179901 .101989749 .5099945 .09599304 .42599488 .09599304 .41099549 .09599304H.21499634C.2809906 .14497376 .35499574 .20095825 .4149933 .24093628 .5049896 .30291749 .58898928 .36090089 .58898928 .46687318 .58898928 .59495547 .46798707 .6660156 .32499696 .6660156 .18998719 .6660156 .09098816 .58795168 .09098816 .48986817 .09098816 .4378662 .1349945 .42886354 .14898682 .42886354 .17599488 .42886354 .20799256 .4468689 .20799256 .48786927 .20799256 .52386477 .18199158 .543869 .15098572 .546875 .1789856 .59194949 .23699951 .6220093 .3039856 .6220093 .40098573 .6220093 .48199464 .5639038 .48199464 .4658661 .48199464 .3818817 .42399598 .31791688 .34700013 .2529297L.102996829 .04598999C.09298706 .036987306 .09199524 .036987306 .09098816 .02999878V0H.55599978L.58898928 .19296265Z"/>
<path id="font_5_1" d="M.397995 .63591006C.397995 .6660156 .394989 .6660156 .3619995 .6660156 .29100038 .6016083 .17999268 .6016083 .1599884 .6016083H.14299011V.5576172H.1599884C.18299866 .5576172 .24798584 .5606079 .30599977 .58561709V.08596802C.30599977 .054977418 .30599977 .04399109 .19999695 .04399109H.1499939V0C.20498657 .0039978029 .2939911 .0039978029 .35198976 .0039978029 .4099884 .0039978029 .49899293 .0039978029 .55400088 0V.04399109H.5039978C.397995 .04399109 .397995 .054977418 .397995 .08596802V.63591006Z"/>
<path id="font_4_2" d="M.36799623 .6563721C.37199403 .67037966 .37199403 .67237856 .37199403 .67736819 .37199403 .6943817 .35699464 .6943817 .34098817 .69337466L.21798706 .68437197C.20098877 .6833801 .19898987 .68237307 .19400025 .67837527 .18998719 .67337039 .18699646 .66137698 .18699646 .65538027 .18699646 .63838198 .20298767 .63838198 .21699524 .63838198 .21798706 .63838198 .23599243 .63838198 .25099183 .63638308 .269989 .6343689 .2709961 .6313782 .2709961 .62338259 .2709961 .6203766 .2709961 .6183777 .2659912 .6003723L.12799073 .04826355C.12399292 .0332489 .12399292 .03125 .12399292 .025253296 .12399292 .002243042 .14199829-.0107421879 .1619873-.0107421879 .18199158-.0107421879 .20399475 .004257202 .20999146 .028259278 .21299744 .038253786 .21699524 .052261354 .23199463 .11628723L.25 .18530274C.2649994 .24533081 .2649994 .24732971 .29299928 .29034425 .33399964 .35235597 .3929901 .40837098 .47200013 .40837098 .522995 .40837098 .5419922 .379364 .5419922 .3363495 .5419922 .28033448 .49899293 .17329407 .4850006 .1382904 .46998597 .10227966 .46699525 .0942688 .46699525 .07727051 .46699525 .025253296 .5169983-.0107421879 .57598879-.0107421879 .6819916-.0107421879 .7369995 .119277957 .7369995 .14428711 .7369995 .15829468 .7200012 .15829468 .71598818 .15829468 .69898989 .15829468 .69799807 .15429688 .69200137 .13528443 .6749878 .08027649 .6299896 .023254395 .5799866 .023254395 .5569916 .023254395 .5499878 .039260866 .5499878 .061264039 .5499878 .08126831 .56199648 .11027527 .57099917 .1342926 .58200076 .16130066 .6259918 .2703247 .6259918 .323349 .6259918 .39237977 .57899478 .4423828 .47698976 .4423828 .37799073 .4423828 .31999208 .379364 .2899933 .34635926L.36799623 .6563721Z"/>
<path id="font_6_1" d="M.8799896 .2223053C.8959961 .2223053 .9229889 .2223053 .9229889 .25030519 .9229889 .2783203 .8959961 .2783203 .8799896 .2783203H.20298767C.18699646 .2783203 .1599884 .2783203 .1599884 .25030519 .1599884 .2223053 .18699646 .2223053 .20298767 .2223053H.8799896Z"/>
</defs>
<use data-text="G" xlink:href="#font_1_1" transform="matrix(9.962799,0,0,-9.963098,5.9168016,13.916994)"/>
<use data-text="1" xlink:href="#font_2_1" transform="matrix(6.97394,0,0,-6.9741489,13.749962,15.412069)"/>
<use data-text="G" xlink:href="#font_1_1" transform="matrix(9.962799,0,0,-9.963098,50.717706,13.916994)"/>
<use data-text="1" xlink:href="#font_2_1" transform="matrix(6.97394,0,0,-6.9741489,58.55085,15.412069)"/>
<use data-text="N" xlink:href="#font_1_2" transform="matrix(9.962799,0,0,-9.963098,7.522835,47.453668)"/>
<use data-text="N" xlink:href="#font_1_2" transform="matrix(9.962799,0,0,-9.963098,52.32374,47.453668)"/>
<path transform="matrix(1.00002,0,0,-1.00005,34.469377,27.281662)" stroke-width=".39848" stroke-linecap="butt" stroke-miterlimit="10" stroke-linejoin="miter" fill="none" stroke="#000000" d="M-11.75603 15.85426H11.35756"/>
<path transform="matrix(1.00002,0,0,-1.00005,46.026407,11.42661)" stroke-width=".39848" stroke-linecap="round" stroke-linejoin="round" fill="none" stroke="#000000" d="M-2.07213 2.39091C-1.69356 .95633-.84995 .27893 0 0-.84995-.27893-1.69356-.95633-2.07213-2.39091"/>
<use data-text="&#x03d5;" xlink:href="#font_3_1" transform="matrix(6.97394,0,0,-6.9741489,28.136246,6.589628)"/>
<use data-text="g" xlink:href="#font_4_1" transform="matrix(4.9813997,0,0,-4.981549,32.926347,7.585678)"/>
<use data-text="2" xlink:href="#font_5_2" transform="matrix(4.9813997,0,0,-4.981549,36.416414,9.080752)"/>
<path transform="matrix(1.00002,0,0,-1.00005,34.469377,27.281662)" stroke-width=".39848" stroke-linecap="butt" stroke-miterlimit="10" stroke-linejoin="miter" fill="none" stroke="#000000" d="M-22.40054 8.02005V-9.11597"/>
<path transform="matrix(0,1.00005,1.00002,0,12.068388,36.59733)" stroke-width=".39848" stroke-linecap="round" stroke-linejoin="round" fill="none" stroke="#000000" d="M-2.07213 2.39091C-1.69356 .95633-.84995 .27893 0 0-.84995-.27893-1.69356-.95633-2.07213-2.39091"/>
<use data-text="&#x03d5;" xlink:href="#font_3_1" transform="matrix(6.97394,0,0,-6.9741489,1.0437088,29.772788)"/>
<use data-text="1" xlink:href="#font_5_1" transform="matrix(4.9813997,0,0,-4.981549,5.833809,30.768837)"/>
<path transform="matrix(1.00002,0,0,-1.00005,34.469377,27.281662)" stroke-width=".39848" stroke-linecap="butt" stroke-miterlimit="10" stroke-linejoin="miter" fill="none" stroke="#000000" d="M-13.36185-17.68074H12.96338"/>
<path transform="matrix(1.00002,0,0,-1.00005,47.632249,44.963289)" stroke-width=".39848" stroke-linecap="round" stroke-linejoin="round" fill="none" stroke="#000000" d="M-2.07213 2.39091C-1.69356 .95633-.84995 .27893 0 0-.84995-.27893-1.69356-.95633-2.07213-2.39091"/>
<use data-text="&#x03d5;" xlink:href="#font_3_1" transform="matrix(6.97394,0,0,-6.9741489,29.764283,41.26136)"/>
<use data-text="h" xlink:href="#font_4_2" transform="matrix(4.9813997,0,0,-4.981549,34.554384,42.318414)"/>
<path transform="matrix(1.00002,0,0,-1.00005,34.469377,27.281662)" stroke-width=".39848" stroke-linecap="butt" stroke-miterlimit="10" stroke-linejoin="miter" fill="none" stroke="#000000" d="M22.40054-9.51443V7.62158"/>
<path transform="matrix(0,-1.00005,-1.00002,-0,56.87036,19.460452)" stroke-width=".39848" stroke-linecap="round" stroke-linejoin="round" fill="none" stroke="#000000" d="M-2.07213 2.39091C-1.69356 .95633-.84995 .27893 0 0-.84995-.27893-1.69356-.95633-2.07213-2.39091"/>
<use data-text="&#x03d5;" xlink:href="#font_3_1" transform="matrix(6.97394,0,0,-6.9741489,59.216875,30.223809)"/>
<use data-text="&#x2212;" xlink:href="#font_6_1" transform="matrix(4.9813997,0,0,-4.981549,64.00697,26.991646)"/>
<use data-text="1" xlink:href="#font_5_1" transform="matrix(4.9813997,0,0,-4.981549,69.40408,26.991646)"/>
<use data-text="1" xlink:href="#font_5_1" transform="matrix(4.9813997,0,0,-4.981549,64.00697,32.386919)"/>
</svg>
