<svg xmlns="http://www.w3.org/2000/svg" xmlns:xlink="http://www.w3.org/1999/xlink" xmlns:inkscape="http://www.inkscape.org/namespaces/inkscape" version="1.1" width="107" height="48" viewBox="0 0 107 48">
<defs>
<path id="font_1_1" d="M.375 .6136017C.3809967 .63760378 .38398744 .6476135 .40299989 .65060427 .4119873 .6516113 .44400025 .6516113 .46398927 .6516113 .5349884 .6516113 .6459961 .6516113 .6459961 .5525818 .6459961 .51856997 .6299896 .44955445 .59098818 .41055299 .5649872 .38453675 .5119934 .35253907 .42199708 .35253907H.30999757L.375 .6136017M.5189972 .33953858C.6199951 .3615265 .7389984 .43154908 .7389984 .5325775 .7389984 .61860659 .6489868 .6826172 .5179901 .6826172H.23298645C.21299744 .6826172 .20399475 .6826172 .20399475 .6626129 .20399475 .6516113 .21299744 .6516113 .23199463 .6516113 .23399353 .6516113 .25299073 .6516113 .269989 .6496124 .28799439 .6476135 .29699708 .64660647 .29699708 .63360598 .29699708 .62960818 .29599 .6266022 .29299928 .6145935L.15899658 .07752991C.14898682 .038528444 .14698792 .030532837 .067993167 .030532837 .049987794 .030532837 .040985109 .030532837 .040985109 .010528564 .040985109-.00047302247 .052993776-.00047302247 .054992677-.00047302247 .08299255-.00047302247 .15299988 .002532959 .18099976 .002532959 .20899964 .002532959 .27999879-.00047302247 .30799867-.00047302247 .31599427-.00047302247 .32798768-.00047302247 .32798768 .01953125 .32798768 .030532837 .31900025 .030532837 .2999878 .030532837 .2630005 .030532837 .23498535 .030532837 .23498535 .048538209 .23498535 .054534913 .23699951 .059524537 .23799134 .0655365L.3039856 .3305359H.4229889C.5139923 .3305359 .5319977 .27453614 .5319977 .23953247 .5319977 .22453308 .5239868 .19352722 .5179901 .17053223 .5109863 .14253235 .5019989 .105529788 .5019989 .08552551 .5019989-.022460938 .621994-.022460938 .6349945-.022460938 .7200012-.022460938 .7549896 .07853699 .7549896 .0925293 .7549896 .104537967 .74398806 .104537967 .7429962 .104537967 .73399356 .104537967 .7319946 .09753418 .7299957 .090530399 .7049866 .016525269 .6619873-.00047302247 .6389923-.00047302247 .60598757-.00047302247 .598999 .021530152 .598999 .060531618 .598999 .091537479 .6049957 .14253235 .60899356 .17453003 .61099246 .1885376 .61299136 .20753479 .61299136 .2215271 .61299136 .2985382 .54599 .3295288 .5189972 .33953858Z"/>
<path id="font_1_3" d="M.4269867 .6066284C.43399049 .63461306 .43798829 .64060977 .44999696 .6436157 .45899964 .6456146 .49198915 .6456146 .5130005 .6456146 .6139984 .6456146 .6589966 .6416168 .6589966 .56365969 .6589966 .54867556 .6549988 .50968936 .651001 .4837036 .6499939 .4797058 .647995 .4677124 .647995 .46472169 .647995 .45872499 .651001 .45173646 .6599884 .45173646 .67099 .45173646 .6729889 .45973207 .6749878 .4747162L.70199587 .64860537C.7029877 .65260317 .70399478 .6626129 .70399478 .66560366 .70399478 .6766052 .69400027 .6766052 .6769867 .6766052H.12199402C.09799194 .6766052 .09700012 .6756134 .08999634 .6566162L.02999878 .4807129C.0289917 .478714 .023986817 .46472169 .023986817 .46272279 .023986817 .45672608 .0289917 .45173646 .035995485 .45173646 .04598999 .45173646 .04699707 .45672608 .052993776 .4727173 .10699463 .6276245 .1329956 .6456146 .2809906 .6456146H.31999208C.34799195 .6456146 .34799195 .6416168 .34799195 .6336212 .34799195 .6276245 .34498597 .6156311 .34399415 .6126251L.20999146 .07896423C.20098877 .041992189 .19799805 .0309906 .09098816 .0309906 .054992677 .0309906 .04899597 .0309906 .04899597 .011993408 .04899597 0 .05999756 0 .06599426 0 .09298706 0 .12098694 .0019989014 .147995 .0019989014 .17599488 .0019989014 .20498657 .0029907227 .23298645 .0029907227 .26098634 .0029907227 .2889862 .0019989014 .31599427 .0019989014 .34498597 .0019989014 .375 0 .40299989 0 .41299439 0 .4249878 0 .4249878 .019989014 .4249878 .0309906 .4169922 .0309906 .3909912 .0309906 .3659973 .0309906 .35299684 .0309906 .32699586 .032989503 .2979889 .035995485 .2899933 .038986207 .2899933 .054977418 .2899933 .05596924 .2899933 .06097412 .2939911 .07595825L.4269867 .6066284Z"/>
<path id="font_1_2" d="M.644989 .69506838C.644989 .69807437 .6429901 .7050781 .6339874 .7050781 .6289978 .7050781 .6279907 .70407107 .6159973 .6900635L.56799319 .6330414C.5419922 .68006899 .48999024 .7050781 .4249878 .7050781 .2979889 .7050781 .17799378 .58999636 .17799378 .4689026 .17799378 .38783265 .23098755 .34179688 .28199769 .32678224L.3889923 .2987671C.42599488 .2897644 .48098756 .27474977 .48098756 .19267273 .48098756 .1026001 .39898683 .008529663 .30099488 .008529663 .23699951 .008529663 .12599182 .030548096 .12599182 .15464783 .12599182 .17866516 .1309967 .2026825 .13198853 .20869446 .1329956 .21269226 .13398743 .21369934 .13398743 .21569824 .13398743 .22570801 .1269989 .22669983 .12199402 .22669983 .116989139 .22669983 .114990238 .22570801 .11199951 .22270203 .10798645 .21870423 .051986696-.009475708 .051986696-.012466431 .051986696-.018463135 .056991579-.022460938 .06298828-.022460938 .067993167-.022460938 .068984989-.021469117 .08099365-.007461548L.12998963 .049560548C.17298889-.008468628 .24099732-.022460938 .29899598-.022460938 .43499757-.022460938 .5529938 .11061096 .5529938 .2347107 .5529938 .30377198 .5189972 .33779908 .5039978 .35180665 .48098756 .37483216 .46598817 .37882997 .3769989 .40185548 .35499574 .40785218 .31900025 .41786195 .30999757 .41986085 .2829895 .42886354 .24899292 .457901 .24899292 .51094058 .24899292 .59199526 .32899476 .677063 .42399598 .677063 .5069885 .677063 .56799319 .6340332 .56799319 .52194216 .56799319 .48991395 .56399539 .47190858 .56399539 .4658966 .56399539 .4649048 .56399539 .45588685 .57598879 .45588685 .58599856 .45588685 .58699038 .45889283 .59098818 .47590638L.644989 .69506838Z"/>
<path id="font_2_1" d="M.74398806 .2263794C.7599945 .2263794 .7839966 .2263794 .7839966 .25038148 .7839966 .27539063 .7609863 .27539063 .74398806 .27539063H.147995C.13198853 .27539063 .10798645 .27539063 .10798645 .25138856 .10798645 .2263794 .1309967 .2263794 .147995 .2263794H.74398806Z"/>
<path id="font_3_2" d="M.33499146 .63612368C.33499146 .6630554 .33299256 .6640625 .30499269 .6640625 .24099732 .6014404 .1499939 .6004486 .10899353 .6004486V.5644531C.1329956 .5644531 .19898987 .5644531 .2539978 .592453V.08203125C.2539978 .04899597 .2539978 .035995485 .1539917 .035995485H.115997318V0C.13398743 .0009918213 .25698854 .0039978029 .2939911 .0039978029 .32499696 .0039978029 .45098878 .0009918213 .47299195 0V.035995485H.43499757C.33499146 .035995485 .33499146 .04899597 .33499146 .08203125V.63612368Z"/>
<path id="font_4_2" d="M.49198915 .68133547C.49198915 .69433596 .47999574 .69433596 .47499085 .69433596 .45999146 .69433596 .45899964 .68933108 .45498658 .67233279L.397995 .44335938C.22099304 .4353485 .069992069 .30833436 .069992069 .17430115 .069992069 .061279298 .17298889-.006729126 .28399659-.010726929 .27598573-.041793825 .2689972-.0738678 .26098634-.10493469 .24899292-.15203858 .23999024-.18910218 .23999024-.19210816 .23999024-.20410156 .25299073-.20410156 .2559967-.20410156 .2709961-.20410156 .27198792-.20111084 .2769928-.18009949L.31900025-.01171875C.48999024-.0047302248 .6469879 .121292117 .6469879 .25732423 .6469879 .3623352 .5549927 .4373474 .43299867 .4423523L.49198915 .68133547M.29100038 .01727295C.21398926 .021270752 .14299011 .0632782 .14299011 .15730286 .14299011 .25732423 .21899414 .39834596 .3899994 .41435243L.29100038 .01727295M.4249878 .41435243C.5019989 .41134645 .57398989 .369339 .57398989 .2743225 .57398989 .16529846 .48799134 .031280519 .32598878 .01727295L.4249878 .41435243Z"/>
<path id="font_4_1" d="M.4039917 .28630067C.45399476 .17228699 .5109863 .027267456 .5219879 .014266968 .54100039-.009719849 .5589905-.009719849 .57499697-.009719849H.59498599C.6139984-.009719849 .6239929-.009719849 .6239929 .0022735596 .6239929 .0072784426 .62098696 .010269165 .61898806 .012268066 .6069946 .023269654 .5970001 .046279909 .59298709 .055282594L.34899903 .63131716C.34199525 .6493225 .32199098 .69433596 .21598816 .69433596 .20399475 .69433596 .18998719 .69433596 .18998719 .68032839 .18998719 .6683197 .19999695 .6673279 .20498657 .6663208 .22599793 .6633301 .24499512 .6603241 .269989 .60331729L.3889923 .32330323 .09399414 .057281496C.08198547 .04727173 .07398987 .039276124 .07398987 .022277832 .07398987-.0017242432 .09399414-.01171875 .10798645-.01171875 .1269989-.01171875 .13899231 .0012664795 .14199829 .004272461L.4039917 .28630067Z"/>
<path id="font_2_2" d="M.56900027 .6553345C.56900027 .68933108 .5629883 .69433596 .5289917 .69433596H.116989139C.099990848 .69433596 .07699585 .69433596 .07699585 .6693268 .07699585 .6453247 .100997928 .6453247 .116989139 .6453247H.519989V.37223817H.1349945C.117996219 .37223817 .09298706 .37223817 .09298706 .347229 .09298706 .3232422 .114990238 .3232422 .12998963 .3232422H.519989V.04899597H.116989139C.099990848 .04899597 .07699585 .04899597 .07699585 .023986817 .07699585 0 .100997928 0 .116989139 0H.5289917C.5629883 0 .56900027 .004989624 .56900027 .038986207V.6553345Z"/>
<path id="font_3_1" d="M.21899414 .65885928C.21899414 .69485476 .18798828 .7138672 .1619873 .7138672 .1329956 .7138672 .10398865 .69285586 .10398865 .65885928L.14299011 .21783448C.14498902 .1958313 .147995 .1938324 .1619873 .1938324 .1749878 .1938324 .17799378 .1958313 .17999268 .21684265L.21899414 .65885928M.21899414 .057998659C.21899414 .08898926 .19299317 .114990238 .1619873 .114990238 .1269989 .114990238 .10398865 .08699036 .10398865 .057998659 .10398865 .022994996 .13198853 0 .16099549 0 .19400025 0 .21899414 .024993897 .21899414 .057998659Z"/>
<path id="font_5_1" d="M.3849945 .27598573C.3869934 .29595948 .40299989 .42385865 .40299989 .43284608 .40299989 .45083619 .3880005 .46484376 .36799623 .46484376 .34700013 .46484376 .33299256 .44883729 .33299256 .4338379 .33299256 .42385865 .34799195 .29696656 .35099793 .27598573L.19599915 .36889649C.18598938 .3748932 .18199158 .37789918 .17298889 .37789918 .15699768 .37789918 .13899231 .36289979 .13899231 .34092713 .13899231 .3249359 .14898682 .3149414 .1599884 .31095887 .21499634 .28897096 .27198792 .26898194 .32798768 .25 .27198792 .22901917 .17999268 .19604492 .16299439 .1890564 .1559906 .18606568 .13899231 .18006897 .13899231 .15808106 .13899231 .1361084 .15699768 .12110901 .17298889 .12110901 .18399048 .12110901 .21499634 .1401062 .35099793 .22302246 .34799195 .20204163 .33299256 .075149539 .33299256 .06517029 .33299256 .0501709 .34700013 .034179689 .36799623 .034179689 .3880005 .034179689 .40299989 .048171998 .40299989 .06616211 .40299989 .075149539 .3869934 .2030487 .3849945 .22302246L.54299929 .1281128C.5499878 .12411499 .55400088 .12110901 .5629883 .12110901 .57899478 .12110901 .5970001 .1361084 .5970001 .15808106 .5970001 .17407227 .58699038 .18406677 .57598879 .18806458 .5209961 .21003723 .46398927 .23002625 .4079895 .24900818 .46398927 .269989 .55599978 .30296327 .57299807 .30995179 .5799866 .3129425 .5970001 .3189392 .5970001 .34092713 .5970001 .36289979 .57899478 .37789918 .5629883 .37789918 .55400088 .37789918 .5499878 .3748932 .5399933 .36889649L.3849945 .27598573Z"/>
</defs>
<use data-text="R" xlink:href="#font_1_1" transform="matrix(9.962799,0,0,-9.9626,1.1887665,12.783001)"/>
<use data-text="T" xlink:href="#font_1_3" transform="matrix(9.962799,0,0,-9.9626,98.84972,12.783001)"/>
<use data-text="S" xlink:href="#font_1_2" transform="matrix(9.962799,0,0,-9.9626,41.328569,46.125)"/>
<use data-text="&#x2212;" xlink:href="#font_2_1" transform="matrix(6.97394,0,0,-6.9738,48.012697,42.509004)"/>
<use data-text="1" xlink:href="#font_3_2" transform="matrix(6.97394,0,0,-6.9738,54.23883,42.510004)"/>
<use data-text="R" xlink:href="#font_1_1" transform="matrix(9.962799,0,0,-9.9626,58.708909,46.125)"/>
<path transform="matrix(1.00002,0,0,-1,65.57904,26.05)" stroke-width=".39848" stroke-linecap="butt" stroke-miterlimit="10" stroke-linejoin="miter" fill="none" stroke="#000000" d="M-52.25317 15.75798H28.37999"/>
<path transform="matrix(1.00002,0,0,-1,94.15883,10.292019)" stroke-width=".39848" stroke-linecap="round" stroke-linejoin="round" fill="none" stroke="#000000" d="M-2.07213 2.39091C-1.69356 .95633-.84995 .27893 0 0-.84995-.27893-1.69356-.95633-2.07213-2.39091"/>
<use data-text="&#x03d5;" xlink:href="#font_4_2" transform="matrix(6.97394,0,0,-6.9738,51.445756,6.59)"/>
<path transform="matrix(1.00002,0,0,-1,65.57904,26.05)" stroke-width=".39848" stroke-linecap="butt" stroke-miterlimit="10" stroke-linejoin="miter" fill="none" stroke="#000000" d="M-52.25317 10.08234-25.93083-7.89165"/>
<path transform="matrix(.8258065,.56389,.56390127,-.82579,39.812215,34.053979)" stroke-width=".39848" stroke-linecap="round" stroke-linejoin="round" fill="none" stroke="#000000" d="M-2.07213 2.39091C-1.69356 .95633-.84995 .27893 0 0-.84995-.27893-1.69356-.95633-2.07213-2.39091"/>
<use data-text="&#x03bb;" xlink:href="#font_4_1" transform="matrix(6.97394,0,0,-6.9738,19.579117,32.256)"/>
<path transform="matrix(1.00002,0,0,-1,65.57904,26.05)" stroke-width=".39848" stroke-linecap="butt" stroke-dasharray=".39848,1.99255" stroke-miterlimit="10" stroke-linejoin="miter" fill="none" stroke="#000000" d="M2.06364-8.11633 28.44987 9.98018"/>
<path transform="matrix(.8246665,-.56557,-.5655813,-.82465,94.19379,15.957139)" stroke-width=".39848" stroke-linecap="round" stroke-linejoin="round" fill="none" stroke="#000000" d="M-2.07213 2.39091C-1.69356 .95633-.84995 .27893 0 0-.84995-.27893-1.69356-.95633-2.07213-2.39091"/>
<use data-text="&#x2203;" xlink:href="#font_2_2" transform="matrix(6.97394,0,0,-6.9738,83.3464,32.676)"/>
<use data-text="!" xlink:href="#font_3_1" transform="matrix(6.97394,0,0,-6.9738,89.21752,32.676)"/>
<use data-text="&#x03d5;" xlink:href="#font_4_2" transform="matrix(6.97394,0,0,-6.9738,92.83358,32.676)"/>
<use data-text="&#x2217;" xlink:href="#font_5_1" transform="matrix(4.9813997,0,0,-4.9813,97.62469,29.668999)"/>
</svg>
