<svg xmlns="http://www.w3.org/2000/svg" xmlns:xlink="http://www.w3.org/1999/xlink" xmlns:inkscape="http://www.inkscape.org/namespaces/inkscape" version="1.1" width="106" height="49" viewBox="0 0 106 49">
<defs>
<path id="font_1_2" d="M.7599945 .69506838C.7599945 .69807437 .7579956 .7050781 .7489929 .7050781 .74598696 .7050781 .7449951 .70407107 .73399356 .69306948L.6639862 .61598208C.6549988 .6300049 .60899356 .7050781 .49798585 .7050781 .2749939 .7050781 .049987794 .4837799 .049987794 .25144959 .049987794 .09249878 .16099549-.022460938 .32299806-.022460938 .36698915-.022460938 .4119873-.013473511 .44799806 .0015258789 .49798585 .021530152 .5169983 .042526246 .5349884 .06251526 .5439911 .037521364 .56999209 .0005340576 .5799866 .0005340576 .58499148 .0005340576 .58699038 .0035247803 .58699038 .0045318605 .58898928 .0065307619 .598999 .044525148 .60398867 .06550598L.6230011 .14248657C.6269989 .15948487 .6319885 .1764679 .6359863 .19346619 .6469879 .2384491 .647995 .240448 .7049866 .24145508 .70999148 .24145508 .72099307 .2424469 .72099307 .26145936 .72099307 .26844789 .71598818 .27246095 .70799258 .27246095 .68499758 .27246095 .6259918 .26945497 .6029968 .26945497 .57199099 .26945497 .49398805 .27246095 .46299745 .27246095 .45399476 .27246095 .44198609 .27246095 .44198609 .25245667 .44198609 .24145508 .44999696 .24145508 .47200013 .24145508 .47299195 .24145508 .5019989 .24145508 .5249939 .23945618 .5509949 .2364502 .55599978 .23345948 .55599978 .22045899 .55599978 .2114563 .54499819 .16647339 .5349884 .12948609 .5069885 .01953125 .3769989 .008529663 .34199525 .008529663 .24598694 .008529663 .14099121 .06550598 .14099121 .21846009 .14099121 .24945069 .15098572 .41467286 .2559967 .5448761 .30999757 .6129761 .40699769 .67407229 .5059967 .67407229 .60798647 .67407229 .6669922 .59695437 .6669922 .48077394 .6669922 .44070436 .6639862 .43971253 .6639862 .4296875 .6639862 .41967774 .6749878 .41967774 .67900088 .41967774 .69200137 .41967774 .69200137 .42167665 .69699099 .43971253L.7599945 .69506838Z"/>
<path id="font_1_3" d="M.7630005 .60565188C.7719879 .6416168 .7739868 .6516113 .8470001 .6516113 .8730011 .6516113 .8809967 .6516113 .8809967 .6716156 .8809967 .6826172 .8699951 .6826172 .86698916 .6826172 .83898928 .6826172 .7669983 .6796112 .7389984 .6796112 .70999148 .6796112 .6389923 .6826172 .6100006 .6826172 .60198977 .6826172 .59098818 .6826172 .59098818 .6626129 .59098818 .6516113 .59999087 .6516113 .61898806 .6516113 .62098696 .6516113 .6399994 .6516113 .6569977 .6496124 .6749878 .6476135 .6839905 .6466217 .6839905 .6336212 .6839905 .6296234 .68299868 .6276245 .6799927 .6146393L.6199951 .37083436H.31498719L.37399293 .60565188C.3829956 .6416168 .38598634 .6516113 .45799256 .6516113 .48399354 .6516113 .49198915 .6516113 .49198915 .6716156 .49198915 .6826172 .48098756 .6826172 .47799684 .6826172 .44999696 .6826172 .37799073 .6796112 .34999085 .6796112 .32099916 .6796112 .25 .6826172 .22099304 .6826172 .21299744 .6826172 .20199585 .6826172 .20199585 .6626129 .20199585 .6516113 .21099854 .6516113 .22999573 .6516113 .23199463 .6516113 .25099183 .6516113 .2679901 .6496124 .28599549 .6476135 .29499818 .6466217 .29499818 .6336212 .29499818 .6296234 .2939911 .6266327 .29100038 .6146393L.15699768 .07797241C.14698792 .038986207 .14498902 .0309906 .06599426 .0309906 .04798889 .0309906 .038986207 .0309906 .038986207 .010986328 .038986207 0 .050994874 0 .052993776 0 .08099365 0 .1519928 .0029907227 .17999268 .0029907227 .20098877 .0029907227 .22299195 .0019989014 .24398804 .0019989014 .2659912 .0019989014 .28799439 0 .30899049 0 .31698609 0 .32899476 0 .32899476 .019989014 .32899476 .0309906 .31999208 .0309906 .30099488 .0309906 .2639923 .0309906 .23599243 .0309906 .23599243 .048980714 .23599243 .054977418 .23799134 .0599823 .23899842 .065979007L.30699159 .33984376H.6119995C.56999209 .17391968 .5469971 .07896423 .54299929 .0639801 .5329895 .03199768 .5139923 .0309906 .45199586 .0309906 .43699647 .0309906 .42799378 .0309906 .42799378 .010986328 .42799378 0 .43998719 0 .44198609 0 .46998597 0 .54100039 .0029907227 .56900027 .0029907227 .58999636 .0029907227 .6119995 .0019989014 .6329956 .0019989014 .6549988 .0019989014 .6769867 0 .69799807 0 .70599368 0 .71798709 0 .71798709 .019989014 .71798709 .0309906 .70899966 .0309906 .6899872 .0309906 .6529999 .0309906 .625 .0309906 .625 .048980714 .625 .054977418 .6269989 .0599823 .6279907 .065979007L.7630005 .60565188Z"/>
<path id="font_1_1" d="M.43899537 .71199038C.44400025 .72499087 .44400025 .72898867 .44400025 .7299957 .44400025 .7409973 .43499757 .75 .42399598 .75 .4169922 .75 .4099884 .746994 .40699769 .7409973L.05999756-.21200562C.054992677-.2250061 .054992677-.2290039 .054992677-.23001099 .054992677-.24101258 .06399536-.25 .07499695-.25 .08799744-.25 .09098816-.24301148 .09700012-.22601319L.43899537 .71199038Z"/>
<path id="font_1_4" d="M.7559967 .577652C.7659912 .61763 .7839966 .64860537 .8639984 .6516113 .86898806 .6516113 .8809967 .65260317 .8809967 .6716156 .8809967 .6726074 .8809967 .6826172 .8679962 .6826172 .83499148 .6826172 .7999878 .6796112 .7669983 .6796112 .73298647 .6796112 .69799807 .6826172 .6649933 .6826172 .6589966 .6826172 .6469879 .6826172 .6469879 .6626129 .6469879 .6516113 .6569977 .6516113 .6649933 .6516113 .7220001 .65060427 .73298647 .6296234 .73298647 .6076355 .73298647 .6046295 .73098757 .5896454 .7299957 .5866394L.6179962 .141922 .39698792 .66360476C.3889923 .6816101 .3880005 .6826172 .36499024 .6826172H.23098755C.21099854 .6826172 .20199585 .6826172 .20199585 .6626129 .20199585 .6516113 .21099854 .6516113 .22999573 .6516113 .23498535 .6516113 .2979889 .6516113 .2979889 .64260867L.1639862 .10594177C.1539917 .065963748 .13699341 .033996583 .055999757 .0309906 .049987794 .0309906 .038986207 .02999878 .038986207 .010986328 .038986207 .0039978029 .04399109 0 .051986696 0 .083999637 0 .11898804 .0029907227 .1519928 .0029907227 .18598938 .0029907227 .22200012 0 .25498963 0 .2599945 0 .272995 0 .272995 .019989014 .272995 .02999878 .2639923 .0309906 .25299073 .0309906 .19499207 .032989503 .18699646 .054977418 .18699646 .07496643 .18699646 .081954959 .18798828 .08695984 .19099427 .09794617L.32299806 .6256256C.32699586 .6196289 .32699586 .61763 .33198548 .6076355L.58099368 .018997193C.58799746 .0019989014 .59098818 0 .59999087 0 .61099246 0 .61099246 .0029907227 .6159973 .020996094L.7559967 .577652Z"/>
<path id="font_2_2" d="M.49198915 .68133547C.49198915 .69433596 .47999574 .69433596 .47499085 .69433596 .45999146 .69433596 .45899964 .68933108 .45498658 .67233279L.397995 .44335938C.22099304 .4353485 .069992069 .30833436 .069992069 .17430115 .069992069 .061279298 .17298889-.006729126 .28399659-.010726929 .27598573-.041793825 .2689972-.0738678 .26098634-.10493469 .24899292-.15203858 .23999024-.18910218 .23999024-.19210816 .23999024-.20410156 .25299073-.20410156 .2559967-.20410156 .2709961-.20410156 .27198792-.20111084 .2769928-.18009949L.31900025-.01171875C.48999024-.0047302248 .6469879 .121292117 .6469879 .25732423 .6469879 .3623352 .5549927 .4373474 .43299867 .4423523L.49198915 .68133547M.29100038 .01727295C.21398926 .021270752 .14299011 .0632782 .14299011 .15730286 .14299011 .25732423 .21899414 .39834596 .3899994 .41435243L.29100038 .01727295M.4249878 .41435243C.5019989 .41134645 .57398989 .369339 .57398989 .2743225 .57398989 .16529846 .48799134 .031280519 .32598878 .01727295L.4249878 .41435243Z"/>
<path id="font_2_1" d="M.31098939 .36265565H.42999269C.4149933 .30274964 .3929901 .2118988 .3929901 .13302613 .3929901 .09309387 .397995 .06613159 .4039917 .044174196 .41999818-.0057678224 .43299867-.009765625 .44898988-.009765625 .47200013-.009765625 .49598695 .011230469 .49598695 .035186769 .49598695 .043182374 .49398805 .047164918 .48799134 .057159425 .46899415 .09408569 .45098878 .15100098 .45098878 .23286438 .45098878 .25183106 .45098878 .29177857 .46499635 .36265565H.58999636C.60798647 .36265565 .6159973 .36265565 .6269989 .37065126 .6409912 .380661 .6439972 .39665223 .6439972 .4016571 .6439972 .43066407 .6179962 .43066407 .6009979 .43066407H.22399903C.18299866 .43066407 .15499878 .42166139 .10998535 .37965394 .083999637 .35665895 .04499817 .30274964 .04499817 .2937622 .04499817 .28178407 .057998659 .28178407 .06199646 .28178407 .07299805 .28178407 .07398987 .28378297 .07998657 .2927704 .1309967 .36265565 .19299317 .36265565 .21499634 .36265565H.27598573C.24499512 .25283814 .19099427 .13502503 .16099549 .07511902 .15499878 .062149049 .14498902 .04118347 .14199829 .03718567 .14099121 .033187868 .13899231 .029190064 .13899231 .022201539 .13899231 .006225586 .15098572-.009765625 .17399597-.009765625 .21398926-.009765625 .22499085 .035186769 .24899292 .12504578L.31098939 .36265565Z"/>
<path id="font_3_1" d="M.56900027 .6553345C.56900027 .68933108 .5629883 .69433596 .5289917 .69433596H.116989139C.099990848 .69433596 .07699585 .69433596 .07699585 .6693268 .07699585 .6453247 .100997928 .6453247 .116989139 .6453247H.519989V.37223817H.1349945C.117996219 .37223817 .09298706 .37223817 .09298706 .347229 .09298706 .3232422 .114990238 .3232422 .12998963 .3232422H.519989V.04899597H.116989139C.099990848 .04899597 .07699585 .04899597 .07699585 .023986817 .07699585 0 .100997928 0 .116989139 0H.5289917C.5629883 0 .56900027 .004989624 .56900027 .038986207V.6553345Z"/>
<path id="font_4_1" d="M.21899414 .65885928C.21899414 .69485476 .18798828 .7138672 .1619873 .7138672 .1329956 .7138672 .10398865 .69285586 .10398865 .65885928L.14299011 .21783448C.14498902 .1958313 .147995 .1938324 .1619873 .1938324 .1749878 .1938324 .17799378 .1958313 .17999268 .21684265L.21899414 .65885928M.21899414 .057998659C.21899414 .08898926 .19299317 .114990238 .1619873 .114990238 .1269989 .114990238 .10398865 .08699036 .10398865 .057998659 .10398865 .022994996 .13198853 0 .16099549 0 .19400025 0 .21899414 .024993897 .21899414 .057998659Z"/>
</defs>
<use data-text="G" xlink:href="#font_1_2" transform="matrix(9.963197,0,0,-9.962799,1.1892395,12.782972)"/>
<use data-text="H" xlink:href="#font_1_3" transform="matrix(9.963197,0,0,-9.962799,95.37688,12.782972)"/>
<use data-text="G" xlink:href="#font_1_2" transform="matrix(9.963197,0,0,-9.962799,41.523668,45.48863)"/>
<use data-text="/" xlink:href="#font_1_1" transform="matrix(9.963197,0,0,-9.962799,49.354738,45.48863)"/>
<use data-text="N" xlink:href="#font_1_4" transform="matrix(9.963197,0,0,-9.962799,53.788347,45.48863)"/>
<path transform="matrix(1.00006,0,0,-1.00002,52.83033,26.97726)" stroke-width=".39848" stroke-linecap="butt" stroke-miterlimit="10" stroke-linejoin="miter" fill="none" stroke="#000000" d="M-39.31023 16.68451H37.65398"/>
<path transform="matrix(1.00006,0,0,-1.00002,90.68581,10.292418)" stroke-width=".39848" stroke-linecap="round" stroke-linejoin="round" fill="none" stroke="#000000" d="M-2.07213 2.39091C-1.69356 .95633-.84995 .27893 0 0-.84995-.27893-1.69356-.95633-2.07213-2.39091"/>
<use data-text="&#x03d5;" xlink:href="#font_2_2" transform="matrix(6.9742186,0,0,-6.97394,49.806154,6.5898535)"/>
<path transform="matrix(1.00006,0,0,-1.00002,52.83033,26.97726)" stroke-width=".39848" stroke-linecap="butt" stroke-miterlimit="10" stroke-linejoin="miter" fill="none" stroke="#000000" d="M-39.31023 10.84503-13.66846-6.96252"/>
<path transform="matrix(.82136926,.57038149,.57040426,-.82133647,39.32468,34.053564)" stroke-width=".39848" stroke-linecap="round" stroke-linejoin="round" fill="none" stroke="#000000" d="M-2.07213 2.39091C-1.69356 .95633-.84995 .27893 0 0-.84995-.27893-1.69356-.95633-2.07213-2.39091"/>
<use data-text="&#x03c0;" xlink:href="#font_2_1" transform="matrix(6.9742186,0,0,-6.97394,19.247315,30.498332)"/>
<path transform="matrix(1.00006,0,0,-1.00002,52.83033,26.97726)" stroke-width=".39848" stroke-linecap="butt" stroke-dasharray=".39848,1.99255" stroke-miterlimit="10" stroke-linejoin="miter" fill="none" stroke="#000000" d="M12.25104-7.1898 37.72377 10.26575"/>
<path transform="matrix(.82490947,-.56524136,-.5652639,-.8248765,90.72069,16.598694)" stroke-width=".39848" stroke-linecap="round" stroke-linejoin="round" fill="none" stroke="#000000" d="M-2.07213 2.39091C-1.69356 .95633-.84995 .27893 0 0-.84995-.27893-1.69356-.95633-2.07213-2.39091"/>
<use data-text="&#x2203;" xlink:href="#font_3_1" transform="matrix(6.9742186,0,0,-6.97394,80.32998,34.209405)"/>
<use data-text="!" xlink:href="#font_4_1" transform="matrix(6.9742186,0,0,-6.97394,86.20133,34.209405)"/>
<path transform="matrix(1.00006,0,0,-1.00002,-58.50535,21.232146)" stroke-width=".3387" stroke-linecap="butt" stroke-miterlimit="10" stroke-linejoin="miter" fill="none" stroke="#000000" d="M148.314-6.948H153.104"/>
<use data-text="&#x03d5;" xlink:href="#font_2_2" transform="matrix(6.9742186,0,0,-6.97394,89.81754,34.209405)"/>
</svg>
